<svg width="29" height="26" viewBox="0 0 29 26" fill="none" xmlns="http://www.w3.org/2000/svg">
<path d="M4 4C4 2.89543 4.89543 2 6 2H9.42105C11.0779 2 12.4211 3.34315 12.4211 5V7.5C12.4211 8.88071 13.5403 10 14.9211 10H17C18.6569 10 20 11.3431 20 13V20C20 21.1046 19.1046 22 18 22H6C4.89543 22 4 21.1046 4 20V4Z" stroke="#888888" stroke-width="2"/>
<path d="M4 4C4 2.89543 4.89543 2 6 2H9.23393C11.5937 2 13.8332 3.04186 15.3532 4.84691L18.1193 8.13163C19.3339 9.57399 20 11.399 20 13.2847V20C20 21.1046 19.1046 22 18 22H6C4.89543 22 4 21.1046 4 20V4Z" stroke="#888888" stroke-width="2"/>
<rect x="12" y="15" width="16.6667" height="10.6667" rx="2.33333" fill="#888888"/>
<path d="M15.1305 23H15.9939V21.4658H16.5714C17.4989 21.4658 18.2397 21.0225 18.2397 20.0367C18.2397 19.0158 17.5047 18.6775 16.548 18.6775H15.1305V23ZM15.9939 20.7833V19.3658H16.4839C17.0789 19.3658 17.3939 19.535 17.3939 20.0367C17.3939 20.5325 17.108 20.7833 16.513 20.7833H15.9939ZM19.0213 23H20.2521C21.5238 23 22.3405 22.2767 22.3405 20.8242C22.3405 19.3658 21.5238 18.6775 20.2055 18.6775H19.0213V23ZM19.8846 22.3058V19.3717H20.153C20.958 19.3717 21.4596 19.7683 21.4596 20.8242C21.4596 21.8742 20.958 22.3058 20.153 22.3058H19.8846ZM23.1855 23H24.0489V21.25H25.583V20.5267H24.0489V19.4008H25.8455V18.6775H23.1855V23Z" fill="white"/>
</svg>
