<svg width="85" height="84" viewBox="0 0 85 84" fill="none" xmlns="http://www.w3.org/2000/svg">
<path d="M78.5011 3.1181C72.5689 -2.54762 60.0684 0.0782385 46.3002 8.68661C44.8857 8.54189 43.4502 8.45909 41.993 8.45909C21.216 8.45909 4.37208 23.6354 4.37208 42.3555C4.37208 42.5333 4.38366 42.7083 4.38728 42.8861C12.8642 29.494 24.236 20.2197 34.5746 17.2554C31.2557 20.0346 27.9485 23.1105 24.7237 26.4549C16.5709 34.9078 10.1662 43.8056 5.9313 52.0165C-0.591367 64.6641 -1.94872 75.6766 3.50239 80.8829C9.34928 86.4673 21.5792 83.9934 35.1129 75.6751C37.345 76.0467 39.6415 76.2504 41.993 76.2504C43.6781 76.2504 45.3357 76.1475 46.9615 75.9538C61.7918 74.189 73.8944 64.6418 78.0547 52.0136H53.0725C51.5314 56.5856 47.2003 59.884 42.0871 59.884C35.6845 59.884 30.4939 54.7187 30.4939 48.3466V47.1845H79.2268C79.4765 45.607 79.6132 43.9949 79.6132 42.3555C79.6132 27.5435 69.0655 14.9593 54.372 10.3462C64.686 4.58474 73.4812 2.99858 77.7212 7.04716C80.3114 9.5211 80.857 13.7749 79.6682 19.1029H81.0407C82.6788 12.1333 81.9799 6.44092 78.5011 3.1181ZM32.5458 75.1719C21.8903 81.2991 12.7542 83.071 8.40579 78.9188C4.62532 75.3087 5.19836 67.9092 9.16623 58.9098C14.1174 66.8623 22.5176 72.8354 32.5458 75.1719ZM30.5076 36.4521C30.6523 30.2061 35.7757 25.1834 42.0871 25.1834C48.3992 25.1834 53.5225 30.2061 53.6665 36.4521H30.5076Z" fill="#37A5E2"/>
<path fill-rule="evenodd" clip-rule="evenodd" d="M73 83C79.0751 83 84 78.0751 84 72C84 65.9249 79.0751 61 73 61C66.9249 61 62 65.9249 62 72C62 78.0751 66.9249 83 73 83ZM69.2929 75.7071C68.9024 75.3166 68.9024 74.6834 69.2929 74.2929L71.5858 72L69.2929 69.7071C68.9024 69.3166 68.9024 68.6834 69.2929 68.2929C69.6834 67.9024 70.3166 67.9024 70.7071 68.2929L73 70.5858L75.2929 68.2929C75.6834 67.9024 76.3166 67.9024 76.7071 68.2929C77.0976 68.6834 77.0976 69.3166 76.7071 69.7071L74.4142 72L76.7071 74.2929C77.0976 74.6834 77.0976 75.3166 76.7071 75.7071C76.3166 76.0976 75.6834 76.0976 75.2929 75.7071L73 73.4142L70.7071 75.7071C70.3166 76.0976 69.6834 76.0976 69.2929 75.7071Z" fill="black"/>
</svg>
