<svg width="24" height="24" viewBox="0 0 24 24" fill="none" xmlns="http://www.w3.org/2000/svg">
<path fill-rule="evenodd" clip-rule="evenodd" d="M12.5 2C7.25332 2 3.00002 6.25329 3.00002 11.5C3.00002 13.2736 3.48512 14.9309 4.32929 16.3498C4.47021 16.5866 4.50713 16.8711 4.43134 17.1361L3.44564 20.5822L7.00927 19.6376C7.26444 19.57 7.53601 19.606 7.76474 19.7378C9.15787 20.5405 10.7738 21 12.5 21C17.7467 21 22 16.7467 22 11.5C22 6.25329 17.7467 2 12.5 2ZM1.00002 11.5C1.00002 5.14873 6.14875 0 12.5 0C18.8513 0 24 5.14873 24 11.5C24 17.8513 18.8513 23 12.5 23C10.5637 23 8.73673 22.5207 7.13387 21.6736L2.25624 22.9665C1.90846 23.0587 1.53798 22.957 1.28606 22.7001C1.03414 22.4432 0.939637 22.0708 1.03858 21.7249L2.39288 16.9901C1.50453 15.3578 1.00002 13.4865 1.00002 11.5Z" fill="#B3B3B3"/>
</svg>
