<svg width="15" height="16" viewBox="0 0 15 16" fill="none" xmlns="http://www.w3.org/2000/svg">
<path fill-rule="evenodd" clip-rule="evenodd" d="M8.11929 1.04019C8.07791 0.735128 7.81641 0.5 7.5 0.5C7.15482 0.5 6.875 0.779822 6.875 1.125V7.375H0.625L0.540192 7.38071C0.235129 7.42209 0 7.68359 0 8C0 8.34518 0.279822 8.625 0.625 8.625H6.875V14.875L6.88071 14.9598C6.92209 15.2649 7.18359 15.5 7.5 15.5C7.84518 15.5 8.125 15.2202 8.125 14.875V8.625H14.375L14.4598 8.61929C14.7649 8.57791 15 8.31641 15 8C15 7.65482 14.7202 7.375 14.375 7.375H8.125V1.125L8.11929 1.04019Z" fill="white"/>
</svg>
