<svg width="24" height="24" viewBox="0 0 24 24" fill="none" xmlns="http://www.w3.org/2000/svg">
<path fill-rule="evenodd" clip-rule="evenodd" d="M12.7432 3.64823C12.6935 3.28215 12.3797 3 12 3C11.5858 3 11.25 3.33579 11.25 3.75V11.25H3.75L3.64823 11.2568C3.28215 11.3065 3 11.6203 3 12C3 12.4142 3.33579 12.75 3.75 12.75H11.25V20.25L11.2568 20.3518C11.3065 20.7178 11.6203 21 12 21C12.4142 21 12.75 20.6642 12.75 20.25V12.75H20.25L20.3518 12.7432C20.7178 12.6935 21 12.3797 21 12C21 11.5858 20.6642 11.25 20.25 11.25H12.75V3.75L12.7432 3.64823Z" fill="#888888"/>
</svg>
