<svg width="40" height="40" viewBox="0 0 40 40" fill="none" xmlns="http://www.w3.org/2000/svg">
<path d="M36 20C36 28.8352 28.8352 36 20 36C11.1648 36 4 28.8352 4 20C4 14.5542 6.72199 9.7431 10.8794 6.85316C13.4669 5.05446 16.6106 4 20 4C28.8352 4 36 11.1648 36 20Z" fill="#4CAF50"/>
<path d="M19.9986 4V20L26.3986 23.2L19.3242 36C19.5778 36 19.745 36 19.9986 36C28.841 36 35.9986 28.8424 35.9986 20C35.9986 11.1576 28.841 4 19.9986 4Z" fill="#FFC107"/>
<path d="M19.9986 4V20L26.3986 23.2L19.3242 36C19.5778 36 19.745 36 19.9986 36C28.841 36 35.9986 28.8424 35.9986 20C35.9986 11.1576 28.841 4 19.9986 4Z" fill="#FFC107"/>
<path d="M34.3186 12.8H20.0466V23.2L17.6466 22.4L6.57459 11.408H6.55859C9.39059 6.952 14.3746 4 20.0466 4C26.2866 4 31.6866 7.584 34.3186 12.8Z" fill="#F44336"/>
<path d="M6.52539 11.4121L13.5998 23.3017L17.599 22.4009L6.52539 11.4121Z" fill="#DD2C00"/>
<path d="M19.3242 35.9998L26.4714 23.1526L23.1986 20.7998L19.3242 35.9998Z" fill="#558B2F"/>
<path d="M34.2915 12.8008H19.9995L18.7363 16.4648L34.2915 12.8008Z" fill="#F9A825"/>
<path d="M27.1988 20.0008C27.1988 23.976 23.974 27.2008 19.9988 27.2008C16.0236 27.2008 12.7988 23.976 12.7988 20.0008C12.7988 16.0256 16.0236 12.8008 19.9988 12.8008C23.974 12.8008 27.1988 16.0256 27.1988 20.0008Z" fill="white"/>
<path d="M25.5984 20.0004C25.5984 23.094 23.092 25.6004 19.9984 25.6004C16.9048 25.6004 14.3984 23.094 14.3984 20.0004C14.3984 16.9068 16.9048 14.4004 19.9984 14.4004C23.092 14.4004 25.5984 16.9068 25.5984 20.0004Z" fill="#2196F3"/>
</svg>
