<svg width="34" height="34" viewBox="0 0 34 34" fill="none" xmlns="http://www.w3.org/2000/svg">
<path d="M16.5 26C12.3832 26 8.70266 24.9215 6.08197 23.2308C3.45098 21.5334 2 19.3075 2 17C2 14.6925 3.45098 12.4666 6.08197 10.7692C8.70266 9.07846 12.3832 8 16.5 8C20.6168 8 24.2973 9.07846 26.918 10.7692C29.549 12.4666 31 14.6925 31 17C31 19.3075 29.549 21.5334 26.918 23.2308C24.2973 24.9215 20.6168 26 16.5 26Z" fill="white" stroke="#B8B8B8" stroke-width="2"/>
<circle cx="16.5" cy="17" r="7.85714" transform="rotate(90 16.5 17)" fill="#6F4115"/>
<circle cx="16.4998" cy="17" r="4.36508" transform="rotate(90 16.4998 17)" fill="#1F1004"/>
<circle cx="19.1188" cy="12.6351" r="1.74603" transform="rotate(90 19.1188 12.6351)" fill="white"/>
</svg>
