<svg width="36" height="36" viewBox="0 0 36 36" fill="none" xmlns="http://www.w3.org/2000/svg">
<path fill-rule="evenodd" clip-rule="evenodd" d="M18 34.5C27.1127 34.5 34.5 27.1127 34.5 18C34.5 8.8873 27.1127 1.5 18 1.5C8.8873 1.5 1.5 8.8873 1.5 18C1.5 27.1127 8.8873 34.5 18 34.5ZM18 9.5C18.5523 9.5 19 9.94772 19 10.5V18C19 18.5523 18.5523 19 18 19C17.4477 19 17 18.5523 17 18V10.5C17 9.94772 17.4477 9.5 18 9.5ZM18 23C18.5523 23 19 23.4477 19 24V24.75C19 25.3023 18.5523 25.75 18 25.75C17.4477 25.75 17 25.3023 17 24.75V24C17 23.4477 17.4477 23 18 23Z" fill="#E6E6E6"/>
</svg>
