<svg width="17" height="18" viewBox="0 0 17 18" fill="none" xmlns="http://www.w3.org/2000/svg">
<path fill-rule="evenodd" clip-rule="evenodd" d="M8.5 2.66667C5.0022 2.66667 2.16667 5.5022 2.16667 9C2.16667 12.4978 5.0022 15.3333 8.5 15.3333C11.9978 15.3333 14.8333 12.4978 14.8333 9C14.8333 5.5022 11.9978 2.66667 8.5 2.66667ZM0.166672 9C0.166672 4.39763 3.89763 0.666672 8.5 0.666672C13.1024 0.666672 16.8333 4.39763 16.8333 9C16.8333 13.6024 13.1024 17.3333 8.5 17.3333C3.89763 17.3333 0.166672 13.6024 0.166672 9Z" fill="#888888"/>
<path fill-rule="evenodd" clip-rule="evenodd" d="M8.5 4.66667C9.05228 4.66667 9.5 5.11439 9.5 5.66667V9.00001C9.5 9.55229 9.05228 10 8.5 10C7.94772 10 7.5 9.55229 7.5 9.00001V5.66667C7.5 5.11439 7.94772 4.66667 8.5 4.66667Z" fill="#888888"/>
<path fill-rule="evenodd" clip-rule="evenodd" d="M8.5 10.6667C9.05228 10.6667 9.5 11.1144 9.5 11.6667V12C9.5 12.5523 9.05228 13 8.5 13C7.94772 13 7.5 12.5523 7.5 12V11.6667C7.5 11.1144 7.94772 10.6667 8.5 10.6667Z" fill="#888888"/>
</svg>
