<svg width="36" height="36" viewBox="0 0 36 36" fill="none" xmlns="http://www.w3.org/2000/svg">
<rect x="24.2343" y="2.13232" width="13.1017" height="31.444" rx="6.55084" transform="rotate(45 24.2343 2.13232)" fill="#FFCD1B"/>
<mask id="path-2-inside-1_351_555" fill="white">
<path fill-rule="evenodd" clip-rule="evenodd" d="M22.5138 22.6461L12.9848 13.1171L19.3375 6.76449C21.9689 4.13313 26.2351 4.13313 28.8665 6.76449C31.4978 9.39584 31.4978 13.6621 28.8665 16.2935L22.5138 22.6461Z"/>
</mask>
<path fill-rule="evenodd" clip-rule="evenodd" d="M22.5138 22.6461L12.9848 13.1171L19.3375 6.76449C21.9689 4.13313 26.2351 4.13313 28.8665 6.76449C31.4978 9.39584 31.4978 13.6621 28.8665 16.2935L22.5138 22.6461Z" fill="#FF5757"/>
<path d="M22.5138 22.6461L21.8067 23.3532L22.5138 24.0603L23.2209 23.3532L22.5138 22.6461ZM12.9848 13.1171L12.2777 12.41L11.5706 13.1171L12.2777 13.8243L12.9848 13.1171ZM19.3375 6.76449L18.6304 6.05738L19.3375 6.76449ZM23.2209 21.939L13.6919 12.41L12.2777 13.8243L21.8067 23.3532L23.2209 21.939ZM13.6919 13.8243L20.0446 7.4716L18.6304 6.05738L12.2777 12.41L13.6919 13.8243ZM20.0446 7.4716C22.2854 5.23076 25.9185 5.23076 28.1594 7.47159L29.5736 6.05738C26.5517 3.0355 21.6523 3.0355 18.6304 6.05738L20.0446 7.4716ZM28.1594 7.47159C30.4002 9.71242 30.4002 13.3455 28.1594 15.5864L29.5736 17.0006C32.5955 13.9787 32.5955 9.07926 29.5736 6.05738L28.1594 7.47159ZM28.1594 15.5864L21.8067 21.939L23.2209 23.3532L29.5736 17.0006L28.1594 15.5864Z" fill="#FF5757" mask="url(#path-2-inside-1_351_555)"/>
</svg>
