<svg width="20" height="20" viewBox="0 0 20 20" fill="none" xmlns="http://www.w3.org/2000/svg">
<path fill-rule="evenodd" clip-rule="evenodd" d="M10 20C15.5228 20 20 15.5228 20 10C20 4.47715 15.5228 0 10 0C4.47715 0 0 4.47715 0 10C0 15.5228 4.47715 20 10 20ZM15.7372 7.67573C16.1104 7.26861 16.0828 6.63604 15.6757 6.26285C15.2686 5.88966 14.636 5.91716 14.2629 6.32428L8.81251 12.2701L6.73716 10.0061C6.36397 9.59898 5.7314 9.57148 5.32428 9.94467C4.91716 10.3179 4.88966 10.9504 5.26285 11.3575L8.07535 14.4257C8.26476 14.6324 8.5322 14.75 8.81251 14.75C9.09281 14.75 9.36025 14.6324 9.54966 14.4257L15.7372 7.67573Z" fill="black" fill-opacity="0.2"/>
</svg>
