<svg width="27" height="24" viewBox="0 0 27 24" fill="none" xmlns="http://www.w3.org/2000/svg">
<path d="M17.564 22C19.7595 22 19.7595 20 19.7595 20V4C19.7595 4 19.7595 2 21.955 2C24.1505 2 24.1505 4 24.1505 4V7H19.7595M17.564 22C15.3684 22 15.3684 20 15.3684 20V17H2.19531V20C2.19531 20 2.19531 22 4.39084 22C6.58636 22 15.3684 22 17.564 22Z" stroke="white" stroke-width="2" stroke-linecap="round" stroke-linejoin="round"/>
<path d="M5.48877 17V4C5.48877 4 5.48877 2 7.68429 2C9.87981 2 21.9552 2 21.9552 2" stroke="white" stroke-width="2" stroke-linecap="round" stroke-linejoin="round"/>
<path d="M9.87988 8H15.3687" stroke="white" stroke-width="2" stroke-linecap="round" stroke-linejoin="round"/>
<path d="M9.87988 12H15.3687" stroke="white" stroke-width="2" stroke-linecap="round" stroke-linejoin="round"/>
</svg>
