<svg width="16" height="16" viewBox="0 0 16 16" fill="none" xmlns="http://www.w3.org/2000/svg">
<path fill-rule="evenodd" clip-rule="evenodd" d="M3.79289 3.79289C4.15338 3.43241 4.72061 3.40468 5.1129 3.7097L5.20711 3.79289L8 6.585L10.7929 3.79289C11.1834 3.40237 11.8166 3.40237 12.2071 3.79289C12.5676 4.15338 12.5953 4.72061 12.2903 5.1129L12.2071 5.20711L9.415 8L12.2071 10.7929L12.2903 10.8871C12.5953 11.2794 12.5676 11.8466 12.2071 12.2071C11.8466 12.5676 11.2794 12.5953 10.8871 12.2903L10.7929 12.2071L8 9.415L5.20711 12.2071C4.81658 12.5976 4.18342 12.5976 3.79289 12.2071C3.43241 11.8466 3.40468 11.2794 3.7097 10.8871L3.79289 10.7929L6.585 8L3.79289 5.20711L3.7097 5.1129C3.40468 4.72061 3.43241 4.15338 3.79289 3.79289Z" fill="white"/>
</svg>
