<svg width="36" height="26" viewBox="0 0 36 26" fill="none" xmlns="http://www.w3.org/2000/svg">
<path d="M4 4C4 2.89543 4.89543 2 6 2H9.42105C11.0779 2 12.4211 3.34315 12.4211 5V7.5C12.4211 8.88071 13.5403 10 14.9211 10H17C18.6569 10 20 11.3431 20 13V20C20 21.1046 19.1046 22 18 22H6C4.89543 22 4 21.1046 4 20V4Z" stroke="#888888" stroke-width="2"/>
<path d="M4 4C4 2.89543 4.89543 2 6 2H9.23393C11.5937 2 13.8332 3.04186 15.3532 4.84691L18.1193 8.13163C19.3339 9.57399 20 11.399 20 13.2847V20C20 21.1046 19.1046 22 18 22H6C4.89543 22 4 21.1046 4 20V4Z" stroke="#888888" stroke-width="2"/>
<rect x="13" y="15" width="23" height="11" rx="2.33333" fill="#888888"/>
<path d="M17.8313 23H18.8872L19.3597 20.865C19.4297 20.5267 19.488 20.1942 19.5463 19.8617H19.5697C19.6222 20.1942 19.6863 20.5267 19.7563 20.865L20.2405 23H21.3138L22.113 18.6775H21.2963L20.9522 20.7892C20.888 21.2383 20.8238 21.6992 20.7597 22.1658H20.7305C20.6372 21.6992 20.5497 21.2325 20.4563 20.7892L19.9605 18.6775H19.2197L18.718 20.7892C18.6247 21.2383 18.5313 21.6992 18.4438 22.1658H18.4205C18.3563 21.6992 18.2863 21.2442 18.2222 20.7892L17.878 18.6775H17.003L17.8313 23ZM24.0557 23.0817C24.8724 23.0817 25.6249 22.4517 25.6249 21.3667C25.6249 20.2817 24.8724 19.6517 24.0557 19.6517C23.2391 19.6517 22.4866 20.2817 22.4866 21.3667C22.4866 22.4517 23.2391 23.0817 24.0557 23.0817ZM24.0557 22.3817C23.6124 22.3817 23.3616 21.985 23.3616 21.3667C23.3616 20.7542 23.6124 20.3517 24.0557 20.3517C24.4991 20.3517 24.7499 20.7542 24.7499 21.3667C24.7499 21.985 24.4991 22.3817 24.0557 22.3817ZM26.3423 23H27.1998V21.0517C27.3806 20.5792 27.6898 20.41 27.9464 20.41C28.0806 20.41 28.1739 20.4275 28.2906 20.4625L28.4364 19.7217C28.3373 19.6808 28.2323 19.6517 28.0514 19.6517C27.7131 19.6517 27.3631 19.885 27.1239 20.3108H27.1064L27.0423 19.7333H26.3423V23ZM29.9638 23.0817C30.3021 23.0817 30.6288 22.895 30.8679 22.6617H30.8913L30.9554 23H31.6496V18.345H30.7979V19.4942L30.8271 20.0075C30.5938 19.7917 30.3663 19.6517 29.9988 19.6517C29.2929 19.6517 28.6279 20.305 28.6279 21.3667C28.6279 22.44 29.1529 23.0817 29.9638 23.0817ZM30.1854 22.3758C29.7538 22.3758 29.5088 22.0375 29.5088 21.3608C29.5088 20.7075 29.8179 20.3575 30.1854 20.3575C30.3896 20.3575 30.5996 20.4217 30.7979 20.6025V22.0375C30.6054 22.2825 30.4129 22.3758 30.1854 22.3758Z" fill="white"/>
</svg>
