<svg width="36" height="26" viewBox="0 0 36 26" fill="none" xmlns="http://www.w3.org/2000/svg">
<path d="M4 4C4 2.89543 4.89543 2 6 2H9.42105C11.0779 2 12.4211 3.34315 12.4211 5V7.5C12.4211 8.88071 13.5403 10 14.9211 10H17C18.6569 10 20 11.3431 20 13V20C20 21.1046 19.1046 22 18 22H6C4.89543 22 4 21.1046 4 20V4Z" stroke="#888888" stroke-width="2"/>
<path d="M4 4C4 2.89543 4.89543 2 6 2H9.23393C11.5937 2 13.8332 3.04186 15.3532 4.84691L18.1193 8.13163C19.3339 9.57399 20 11.399 20 13.2847V20C20 21.1046 19.1046 22 18 22H6C4.89543 22 4 21.1046 4 20V4Z" stroke="#888888" stroke-width="2"/>
<rect x="13" y="15" width="23" height="11" rx="2.33333" fill="#888888"/>
<path d="M18.2091 23H19.0725V21.1333H20.7058V23H21.5633V18.6775H20.7058V20.3808H19.0725V18.6775H18.2091V23ZM23.0323 23H24.0882L24.5607 20.865C24.6307 20.5267 24.689 20.1942 24.7473 19.8617H24.7707C24.8232 20.1942 24.8873 20.5267 24.9573 20.865L25.4415 23H26.5148L27.314 18.6775H26.4973L26.1532 20.7892C26.089 21.2383 26.0248 21.6992 25.9607 22.1658H25.9315C25.8382 21.6992 25.7507 21.2325 25.6573 20.7892L25.1615 18.6775H24.4207L23.919 20.7892C23.8257 21.2383 23.7323 21.6992 23.6448 22.1658H23.6215C23.5573 21.6992 23.4873 21.2442 23.4232 20.7892L23.079 18.6775H22.204L23.0323 23ZM27.9617 23H28.8251V21.4658H29.4026C30.3301 21.4658 31.0709 21.0225 31.0709 20.0367C31.0709 19.0158 30.3359 18.6775 29.3792 18.6775H27.9617V23ZM28.8251 20.7833V19.3658H29.3151C29.9101 19.3658 30.2251 19.535 30.2251 20.0367C30.2251 20.5325 29.9392 20.7833 29.3442 20.7833H28.8251Z" fill="white"/>
</svg>
