<svg width="40" height="40" viewBox="0 0 40 40" fill="none" xmlns="http://www.w3.org/2000/svg">
<path d="M33.4138 28.1378C32.9694 28.3702 32.5111 28.575 32.0415 28.751C30.5468 29.3103 28.9634 29.5952 27.3675 29.5921C21.2067 29.5921 15.84 25.3542 15.84 19.916C15.8479 19.1866 16.0503 18.4725 16.4263 17.8475C16.8024 17.2224 17.3384 16.709 17.9791 16.3604C12.4068 16.5947 10.9746 22.4014 10.9746 25.8034C10.9746 35.4222 19.8396 36.3974 21.7496 36.3974C22.7794 36.3974 24.3327 36.098 25.2648 35.8037L25.4354 35.7464C29.0226 34.5063 32.0807 32.0819 34.1064 28.8721C34.1685 28.7744 34.1962 28.6587 34.1851 28.5435C34.1741 28.4282 34.125 28.3199 34.0456 28.2357C33.9661 28.1515 33.8609 28.0961 33.7465 28.0784C33.632 28.0607 33.515 28.0816 33.4138 28.1378Z" fill="url(#paint0_linear_1999_44312)"/>
<path opacity="0.35" d="M33.4138 28.1378C32.9694 28.3702 32.5111 28.575 32.0415 28.751C30.5468 29.3103 28.9634 29.5952 27.3675 29.5921C21.2067 29.5921 15.84 25.3542 15.84 19.916C15.8479 19.1866 16.0503 18.4725 16.4263 17.8475C16.8024 17.2224 17.3384 16.709 17.9791 16.3604C12.4068 16.5947 10.9746 22.4014 10.9746 25.8034C10.9746 35.4222 19.8396 36.3974 21.7496 36.3974C22.7794 36.3974 24.3327 36.098 25.2648 35.8037L25.4354 35.7464C29.0226 34.5063 32.0807 32.0819 34.1064 28.8721C34.1685 28.7744 34.1962 28.6587 34.1851 28.5435C34.1741 28.4282 34.125 28.3199 34.0456 28.2357C33.9661 28.1515 33.8609 28.0961 33.7465 28.0784C33.632 28.0607 33.515 28.0816 33.4138 28.1378Z" fill="url(#paint1_radial_1999_44312)"/>
<path d="M17.0957 34.7618C15.9344 34.0411 14.928 33.0966 14.135 31.9834C13.2312 30.7451 12.6092 29.3241 12.3128 27.8199C12.0163 26.3158 12.0525 24.765 12.4188 23.2763C12.7852 21.7877 13.4728 20.3972 14.4334 19.2024C15.394 18.0076 16.6044 17.0375 17.9797 16.36C18.3859 16.1686 19.0798 15.8223 20.0029 15.8392C20.6533 15.844 21.2937 15.9992 21.874 16.2929C22.4542 16.5865 22.9587 17.0106 23.3476 17.5318C23.8734 18.2338 24.1633 19.0842 24.1757 19.9612C24.1757 19.9339 27.3603 9.59766 13.7601 9.59766C8.04448 9.59766 3.34443 15.0216 3.34443 19.7802C3.32188 22.2975 3.86049 24.7881 4.9211 27.0712C6.65442 30.7695 9.68554 33.7025 13.4389 35.3132C17.1922 36.9239 21.4063 37.1002 25.281 35.8086C23.9243 36.2363 22.491 36.3647 21.0799 36.1849C19.6688 36.0051 18.3134 35.5213 17.1074 34.767L17.0957 34.7618Z" fill="url(#paint2_linear_1999_44312)"/>
<path opacity="0.41" d="M17.0957 34.7618C15.9344 34.0411 14.928 33.0966 14.135 31.9834C13.2312 30.7451 12.6092 29.3241 12.3128 27.8199C12.0163 26.3158 12.0525 24.765 12.4188 23.2763C12.7852 21.7877 13.4728 20.3972 14.4334 19.2024C15.394 18.0076 16.6044 17.0375 17.9797 16.36C18.3859 16.1686 19.0798 15.8223 20.0029 15.8392C20.6533 15.844 21.2937 15.9992 21.874 16.2929C22.4542 16.5865 22.9587 17.0106 23.3476 17.5318C23.8734 18.2338 24.1633 19.0842 24.1757 19.9612C24.1757 19.9339 27.3603 9.59766 13.7601 9.59766C8.04448 9.59766 3.34443 15.0216 3.34443 19.7802C3.32188 22.2975 3.86049 24.7881 4.9211 27.0712C6.65442 30.7695 9.68554 33.7025 13.4389 35.3132C17.1922 36.9239 21.4063 37.1002 25.281 35.8086C23.9243 36.2363 22.491 36.3647 21.0799 36.1849C19.6688 36.0051 18.3134 35.5213 17.1074 34.767L17.0957 34.7618Z" fill="url(#paint3_radial_1999_44312)"/>
<path d="M23.1627 22.711C23.0573 22.8477 22.7331 23.0364 22.7331 23.4479C22.7331 23.7877 22.9544 24.1145 23.3476 24.3892C25.2198 25.6911 28.7494 25.5193 28.7585 25.5193C30.1458 25.5159 31.5068 25.1405 32.6995 24.4321C33.9028 23.7295 34.9015 22.7246 35.5964 21.5169C36.2914 20.3092 36.6585 18.9408 36.6614 17.5474C36.6952 14.6297 35.6198 12.6898 35.185 11.8305C32.4261 6.43393 26.471 3.33008 19.9951 3.33008C15.6156 3.32965 11.4119 5.05321 8.29323 8.128C5.17459 11.2028 3.39167 15.3816 3.33008 19.7607C3.39257 15.0034 8.12127 11.1613 13.7457 11.1613C14.2014 11.1613 16.8001 11.2056 19.2139 12.4724C21.3413 13.5895 22.4558 14.9383 23.2304 16.2754C24.035 17.6646 24.1783 19.4196 24.1783 20.1188C24.1783 20.8179 23.8215 21.8543 23.1627 22.711Z" fill="url(#paint4_radial_1999_44312)"/>
<path d="M23.1627 22.711C23.0573 22.8477 22.7331 23.0364 22.7331 23.4479C22.7331 23.7877 22.9544 24.1145 23.3476 24.3892C25.2198 25.6911 28.7494 25.5193 28.7585 25.5193C30.1458 25.5159 31.5068 25.1405 32.6995 24.4321C33.9028 23.7296 34.9015 22.7246 35.5964 21.5169C36.2914 20.3092 36.6585 18.9408 36.6614 17.5474C36.6952 14.6297 35.6198 12.6898 35.185 11.8305C32.4261 6.43394 26.471 3.33008 19.9951 3.33008C15.6156 3.32965 11.4119 5.05321 8.29323 8.128C5.17459 11.2028 3.39167 15.3816 3.33008 19.7607C3.39257 15.0034 8.12127 11.1613 13.7457 11.1613C14.2014 11.1613 16.8001 11.2056 19.2139 12.4724C21.3413 13.5895 22.4558 14.9383 23.2304 16.2754C24.035 17.6646 24.1783 19.4196 24.1783 20.1188C24.1783 20.8179 23.8215 21.8543 23.1627 22.711Z" fill="url(#paint5_radial_1999_44312)"/>
<defs>
<linearGradient id="paint0_linear_1999_44312" x1="10.9746" y1="26.3815" x2="34.1936" y2="26.3815" gradientUnits="userSpaceOnUse">
<stop stop-color="#0C59A4"/>
<stop offset="1" stop-color="#114A8B"/>
</linearGradient>
<radialGradient id="paint1_radial_1999_44312" cx="0" cy="0" r="1" gradientUnits="userSpaceOnUse" gradientTransform="translate(23.7988 26.5645) scale(12.418 11.7971)">
<stop offset="0.72" stop-opacity="0"/>
<stop offset="0.95" stop-opacity="0.53"/>
<stop offset="1"/>
</radialGradient>
<linearGradient id="paint2_linear_1999_44312" x1="23.2161" y1="16.3092" x2="8.71369" y2="32.1058" gradientUnits="userSpaceOnUse">
<stop stop-color="#1B9DE2"/>
<stop offset="0.16" stop-color="#1595DF"/>
<stop offset="0.67" stop-color="#0680D7"/>
<stop offset="1" stop-color="#0078D4"/>
</linearGradient>
<radialGradient id="paint3_radial_1999_44312" cx="0" cy="0" r="1" gradientUnits="userSpaceOnUse" gradientTransform="translate(12.5212 29.24) rotate(-81.3844) scale(18.6734 15.0862)">
<stop offset="0.76" stop-opacity="0"/>
<stop offset="0.95" stop-opacity="0.5"/>
<stop offset="1"/>
</radialGradient>
<radialGradient id="paint4_radial_1999_44312" cx="0" cy="0" r="1" gradientUnits="userSpaceOnUse" gradientTransform="translate(6.69725 9.49832) rotate(92.2906) scale(26.3765 56.1765)">
<stop stop-color="#35C1F1"/>
<stop offset="0.11" stop-color="#34C1ED"/>
<stop offset="0.23" stop-color="#2FC2DF"/>
<stop offset="0.31" stop-color="#2BC3D2"/>
<stop offset="0.67" stop-color="#36C752"/>
</radialGradient>
<radialGradient id="paint5_radial_1999_44312" cx="0" cy="0" r="1" gradientUnits="userSpaceOnUse" gradientTransform="translate(34.5864 13.408) rotate(73.7398) scale(12.6732 10.3059)">
<stop stop-color="#66EB6E"/>
<stop offset="1" stop-color="#66EB6E" stop-opacity="0"/>
</radialGradient>
</defs>
</svg>
