<svg width="16" height="16" viewBox="0 0 16 16" fill="none" xmlns="http://www.w3.org/2000/svg">
<path fill-rule="evenodd" clip-rule="evenodd" d="M8 1.92C4.64211 1.92 1.92 4.64211 1.92 8C1.92 11.3579 4.64211 14.08 8 14.08C11.3579 14.08 14.08 11.3579 14.08 8C14.08 4.64211 11.3579 1.92 8 1.92ZM0 8C0 3.58172 3.58172 0 8 0C12.4183 0 16 3.58172 16 8C16 12.4183 12.4183 16 8 16C3.58172 16 0 12.4183 0 8Z" fill="#B3B3B3"/>
<path fill-rule="evenodd" clip-rule="evenodd" d="M9.871 3.66978C10.412 4.01408 10.7673 4.57307 10.8717 5.30393C11.0222 6.35798 10.647 7.15633 10.0924 7.69134C9.74626 8.02526 9.45618 8.30557 9.24145 8.6002C9.03389 8.88499 8.96132 9.09901 8.96132 9.27973H7.04132C7.04132 8.5417 7.35041 7.93503 7.68982 7.46933C8.00604 7.03546 8.40374 6.65222 8.71302 6.35419C8.72869 6.33909 8.74414 6.32421 8.75933 6.30955C8.84559 6.22633 8.90517 6.13805 8.941 6.03903C8.976 5.9423 9.00255 5.79655 8.97096 5.57546C8.93904 5.35197 8.86847 5.30745 8.84212 5.29082C8.84145 5.2904 8.84081 5.28999 8.8402 5.28961C8.77301 5.24685 8.62899 5.19969 8.37846 5.19969C8.13876 5.19969 7.88512 5.2429 7.678 5.2929C7.57777 5.31709 7.49576 5.34107 7.44094 5.35826C7.41369 5.3668 7.3936 5.37352 7.38184 5.37755L7.37072 5.38142L7.37211 5.38091C6.87476 5.5638 6.32373 5.30889 6.14051 4.81158C5.95721 4.31408 6.21193 3.76219 6.70943 3.57889L7.04132 4.4797C6.70943 3.57889 6.70911 3.57901 6.70943 3.57889L6.71233 3.57783L6.71622 3.57642L6.72688 3.57259L6.75945 3.56123C6.78599 3.55213 6.82216 3.5401 6.86669 3.52614C6.95544 3.49832 7.07915 3.46231 7.22748 3.4265C7.51751 3.35649 7.93245 3.2797 8.37846 3.27969C8.81365 3.27969 9.37248 3.35253 9.871 3.66978Z" fill="#B3B3B3"/>
<path fill-rule="evenodd" clip-rule="evenodd" d="M8.00102 10.2391C8.53121 10.2391 8.96102 10.6689 8.96102 11.1991V11.5191C8.96102 12.0493 8.53121 12.4791 8.00102 12.4791C7.47082 12.4791 7.04102 12.0493 7.04102 11.5191V11.1991C7.04102 10.6689 7.47082 10.2391 8.00102 10.2391Z" fill="#B3B3B3"/>
</svg>
