<svg width="20" height="20" viewBox="0 0 20 20" fill="none" xmlns="http://www.w3.org/2000/svg">
<path fill-rule="evenodd" clip-rule="evenodd" d="M18.7072 1.29292C19.0977 1.68345 19.0977 2.31661 18.7072 2.70714L2.7072 18.7071C2.31667 19.0977 1.68351 19.0977 1.29298 18.7071C0.90246 18.3166 0.902459 17.6834 1.29298 17.2929L17.293 1.29292C17.6835 0.902398 18.3167 0.902398 18.7072 1.29292Z" fill="white"/>
<path fill-rule="evenodd" clip-rule="evenodd" d="M1.29289 1.29289C1.68342 0.902369 2.31658 0.902369 2.70711 1.29289L18.7071 17.2929C19.0976 17.6834 19.0976 18.3166 18.7071 18.7071C18.3166 19.0976 17.6834 19.0976 17.2929 18.7071L1.29289 2.70711C0.902367 2.31658 0.902367 1.68342 1.29289 1.29289Z" fill="white"/>
</svg>
