<svg width="32" height="32" viewBox="0 0 32 32" fill="none" xmlns="http://www.w3.org/2000/svg">
<path d="M21.3337 29.3337C24.0003 29.3337 24.0003 26.667 24.0003 26.667V5.33366C24.0003 5.33366 24.0003 2.66699 26.667 2.66699C29.3337 2.66699 29.3337 5.33366 29.3337 5.33366V9.33366H24.0003M21.3337 29.3337C18.667 29.3337 18.667 26.667 18.667 26.667V22.667H2.66699V26.667C2.66699 26.667 2.66699 29.3337 5.33366 29.3337C8.00033 29.3337 18.667 29.3337 21.3337 29.3337Z" stroke="#888888" stroke-width="2" stroke-linecap="round" stroke-linejoin="round"/>
<path d="M6.66699 22.667V5.33366C6.66699 5.33366 6.66699 2.66699 9.33366 2.66699C12.0003 2.66699 26.667 2.66699 26.667 2.66699" stroke="#888888" stroke-width="2" stroke-linecap="round" stroke-linejoin="round"/>
<path d="M12 10.667H18.6667" stroke="#888888" stroke-width="2" stroke-linecap="round" stroke-linejoin="round"/>
<path d="M12 16H18.6667" stroke="#888888" stroke-width="2" stroke-linecap="round" stroke-linejoin="round"/>
</svg>
