<svg width="34" height="34" viewBox="0 0 34 34" fill="none" xmlns="http://www.w3.org/2000/svg">
<g clip-path="url(#clip0_1111_618)">
<path d="M13 11.4214V10.7436C13 8.64552 14.635 6.90742 16.7086 7.22704C20.3874 7.79408 25.5422 9.71544 26 16L13 11.4214Z" fill="#4282CE"/>
<path d="M27.0648 18.6847C27.0648 21.4721 29.4433 23.7977 32.6014 24.3362C33.2793 24.4518 33.765 23.7758 33.5398 23.1261L32 18.6847L33.5408 14.2319C33.7656 13.5824 33.2798 12.9068 32.6024 13.0229C29.4438 13.5637 27.0648 15.9001 27.0648 18.6847Z" fill="#4282CE"/>
<path d="M15 27C22.732 27 29 23.1944 29 18.5C29 13.8056 22.732 10 15 10C7.26801 10 1 13.8056 1 18.5C1 23.1944 7.26801 27 15 27Z" fill="#92C4FF"/>
<path d="M15 27C22.1797 27 28 23.4183 28 19C20.2421 19.5741 23.1208 20.2813 15.9411 20.2813C8.76136 20.2813 9.2506 19.5741 2 19C2 23.4183 7.8203 27 15 27Z" fill="#F4F4F4"/>
<path d="M11.0326 14C12.7197 16.7299 12.7197 20.0266 11 23C12.3549 21.9532 13 20.2138 13 18.3782C13 16.5427 12.3671 15.0468 11.0326 14Z" fill="#4282CE"/>
<path d="M9 18.5C9 18.0054 8.85329 17.5219 8.57843 17.1107C8.30357 16.6995 7.91292 16.3791 7.45591 16.19C6.99889 16.0009 6.49605 15.9515 6.01101 16.0483C5.52596 16.145 5.0805 16.3835 4.73101 16.7335C4.38152 17.0834 4.14369 17.5292 4.04762 18.0144C3.95154 18.4996 4.00155 19.0023 4.1913 19.4591C4.38105 19.9158 4.70202 20.3061 5.1136 20.5804C5.52518 20.8546 6.00886 21.0007 6.50346 21C6.8316 21 7.15652 20.9353 7.45964 20.8096C7.76276 20.684 8.03813 20.4997 8.27 20.2676C8.50187 20.0354 8.68569 19.7597 8.81095 19.4564C8.93621 19.1531 9.00045 18.8281 9 18.5Z" fill="white"/>
<path d="M5.5 20C6.32843 20 7 19.3284 7 18.5C7 17.6716 6.32843 17 5.5 17C4.67157 17 4 17.6716 4 18.5C4 19.3284 4.67157 20 5.5 20Z" fill="#1B2627"/>
<path d="M28.5 18.5C28.5 20.6055 27.0921 22.5942 24.64 24.083C22.1969 25.5663 18.7899 26.5 15 26.5C11.2101 26.5 7.80306 25.5663 5.35999 24.083C2.90787 22.5942 1.5 20.6055 1.5 18.5C1.5 16.3945 2.90787 14.4058 5.35999 12.917C7.80306 11.4337 11.2101 10.5 15 10.5C18.7899 10.5 22.1969 11.4337 24.64 12.917C27.0921 14.4058 28.5 16.3945 28.5 18.5Z" stroke="#4282CE"/>
</g>
<defs>
<clipPath id="clip0_1111_618">
<rect width="34" height="34" fill="white"/>
</clipPath>
</defs>
</svg>
