<svg width="34" height="34" viewBox="0 0 34 34" fill="none" xmlns="http://www.w3.org/2000/svg">
<path d="M28 19.9379C28 22.86 26.7974 25.67 24.6444 27.7475C22.4903 29.8262 19.5613 31 16.5 31C13.4387 31 10.5097 29.8262 8.35556 27.7475C6.20261 25.67 5 22.86 5 19.9379C5 16.8324 6.32428 12.5281 8.51135 8.99746C10.7296 5.41645 13.5942 3 16.5 3C19.4058 3 22.2704 5.41645 24.4886 8.99746C26.6757 12.5281 28 16.8324 28 19.9379Z" stroke="#E3E3E3" stroke-width="2"/>
<path d="M28.8834 18.5632L26.9538 20.1902L23.1719 17L19.3892 20.1902L15.6065 17L11.8238 20.1902L8.04197 17L4.26013 20.1902L4.00609 19.9761C4.00609 20.0944 4 20.2128 4 20.3287C4 23.5277 5.31696 26.5958 7.66117 28.8579C10.0054 31.12 13.1848 32.3908 16.5 32.3908C19.8152 32.3908 22.9946 31.12 25.3388 28.8579C27.683 26.5958 29 23.5277 29 20.3287C28.9975 19.7385 28.9586 19.1489 28.8834 18.5632V18.5632Z" fill="#FCD1A0"/>
</svg>
