<svg width="408" height="171" viewBox="0 0 408 171" fill="none" xmlns="http://www.w3.org/2000/svg">
<rect x="0.5" y="0.5" width="407" height="154" rx="7.5" fill="white" stroke="#E8EBEE"/>
<path d="M32.5493 91.8133H31.6747V94.576H38.256V93.8613H32.5493V91.8133ZM32.4213 87.4187C32.4213 86.6613 33.3813 86.2133 34.896 86.2133C36.3893 86.2133 37.3493 86.6613 37.3493 87.4187C37.3493 88.176 36.3893 88.6133 34.896 88.6133C33.3813 88.6133 32.4213 88.176 32.4213 87.4187ZM35.3333 90.3093V89.3067C37.1147 89.2107 38.2453 88.5173 38.2453 87.4187C38.2453 86.224 36.9333 85.5093 34.896 85.5093C32.8373 85.5093 31.5253 86.224 31.5253 87.4187C31.5253 88.528 32.656 89.2107 34.4587 89.3067V90.3093H30.5653V91.024H39.2053V90.3093H35.3333ZM41.6258 89.5413H45.0712V86.1067H40.7405V86.8213H44.2072V88.8267H40.7725V92.4853H41.5298C43.3538 92.4853 44.6338 92.4107 46.1272 92.144L46.0312 91.4187C44.6018 91.696 43.3645 91.76 41.6258 91.76V89.5413ZM49.3165 89.0187H47.7485V85.2107H46.8738V94.8H47.7485V89.7547H49.3165V89.0187ZM58.041 85.232H57.1663V92.2187H58.041V85.232ZM51.2677 88.24C51.2677 87.312 51.9717 86.6507 52.8997 86.6507C53.849 86.6507 54.553 87.312 54.553 88.24C54.553 89.1893 53.849 89.8507 52.8997 89.8507C51.9717 89.8507 51.2677 89.1893 51.2677 88.24ZM55.4063 88.24C55.4063 86.864 54.329 85.8933 52.8997 85.8933C51.481 85.8933 50.4143 86.864 50.4143 88.24C50.4143 89.6267 51.481 90.608 52.8997 90.608C54.329 90.608 55.4063 89.6267 55.4063 88.24ZM52.761 93.8613V91.504H51.8863V94.576H58.329V93.8613H52.761ZM63.1882 89.1893C64.7562 88.9973 66.1856 88.304 66.7189 87.2587C67.2416 88.304 68.6816 88.9973 70.2496 89.1893L70.5589 88.496C68.8629 88.3147 67.3269 87.4827 67.2842 86.416H70.2602V85.712H63.1882V86.416H66.1536C66.1109 87.4827 64.5749 88.3147 62.8789 88.496L63.1882 89.1893ZM66.7082 94.0853C65.2042 94.0853 64.3189 93.712 64.3189 93.04C64.3189 92.3787 65.2042 91.9947 66.7082 91.9947C68.2016 91.9947 69.0976 92.3787 69.0976 93.04C69.0976 93.712 68.2016 94.0853 66.7082 94.0853ZM66.7082 91.312C64.6602 91.312 63.4336 91.9307 63.4336 93.04C63.4336 94.16 64.6602 94.7787 66.7082 94.7787C68.7456 94.7787 69.9829 94.16 69.9829 93.04C69.9829 91.9307 68.7456 91.312 66.7082 91.312ZM62.3882 89.776V90.48H71.0389V89.776H62.3882ZM76.1474 89.4987H73.5021V86.6507H76.1474V89.4987ZM79.1981 87.4827V88.6667H77.0008V87.4827H79.1981ZM77.0008 89.3707H79.1981V90.8853H80.0834V85.232H79.1981V86.7787H77.0008V85.9467H72.6381V90.192H77.0008V89.3707ZM76.9154 94.096C75.4861 94.096 74.6114 93.68 74.6114 92.976C74.6114 92.272 75.4861 91.856 76.9154 91.856C78.3661 91.856 79.2408 92.272 79.2408 92.976C79.2408 93.68 78.3661 94.096 76.9154 94.096ZM76.9154 91.1733C74.9528 91.1733 73.7368 91.824 73.7368 92.976C73.7368 94.1173 74.9528 94.7787 76.9154 94.7787C78.8888 94.7787 80.1154 94.1173 80.1154 92.976C80.1154 91.824 78.8888 91.1733 76.9154 91.1733ZM85.3626 86.0427H84.4879V87.76C84.4879 89.5307 83.3999 91.376 82.0133 92.0693L82.5466 92.7627C83.6239 92.1867 84.5093 90.9813 84.9253 89.5627C85.3626 90.9067 86.2373 92.048 87.3253 92.592L87.8373 91.8987C86.4506 91.2373 85.3626 89.4987 85.3626 87.76V86.0427ZM89.0213 85.2213V88.464H86.8026V89.1787H89.0213V94.8H89.8959V85.2213H89.0213ZM98.1792 89.0933H95.4698V87.664H98.1792V89.0933ZM99.0325 85.616H98.1792V86.992H95.4698V85.616H94.6058V89.7973H99.0325V85.616ZM96.4405 92.944H101.635V90.6187H95.5552V91.312H100.771V92.2933H95.5872V94.6827H101.987V93.9893H96.4405V92.944ZM101.635 87.28V85.232H100.76V90.1707H101.635V88.0053H103.054V87.28H101.635ZM110.712 93.9573H106.008V92.6453H110.712V93.9573ZM110.712 91.9627H106.008V90.704H105.144V94.6613H111.576V90.704H110.712V91.9627ZM111.33 89.1253C111.586 87.9413 111.586 87.088 111.586 86.352V85.6587H105.122V86.3733H110.722C110.722 87.0987 110.722 87.952 110.456 89.1253H104.013V89.84H112.706V89.1253H111.33ZM119.571 86.0427H118.696V87.76C118.696 89.5307 117.608 91.376 116.222 92.0693L116.755 92.7627C117.832 92.1867 118.718 90.9813 119.134 89.5627C119.571 90.9067 120.446 92.048 121.534 92.592L122.046 91.8987C120.659 91.2373 119.571 89.4987 119.571 87.76V86.0427ZM123.23 85.2213V88.464H121.011V89.1787H123.23V94.8H124.104V85.2213H123.23ZM132.989 85.2213V94.8H133.863V85.2213H132.989ZM126.578 86.032V92.4853H131.079V86.032H130.215V88.56H127.442V86.032H126.578ZM127.442 89.2533H130.215V91.7707H127.442V89.2533ZM144.092 90.032C142.417 89.712 140.604 88.2613 140.604 86.6293V85.8933H139.687V86.6293C139.687 88.2613 137.884 89.7013 136.209 90.032L136.604 90.7573C138.044 90.416 139.537 89.392 140.145 87.9947C140.753 89.4027 142.247 90.4267 143.697 90.7573L144.092 90.032ZM135.847 92.784V93.5093H144.519V92.784H135.847Z" fill="#222222"/>
<path d="M90 48.5C90 42.1487 95.1487 37 101.5 37H408V60H101.5C95.1487 60 90 54.8513 90 48.5Z" fill="#F3F3F3"/>
<path d="M142 0H400C404.418 0 408 3.58172 408 8V32H150C145.582 32 142 28.4183 142 24V0Z" fill="#E8EBEE"/>
<path d="M127 0H146V19H127V0Z" fill="#E8EBEE"/>
<rect x="1" y="1" width="141" height="31" rx="8" fill="white"/>
<path d="M42.0134 20.872L37.0001 12.1893L31.9867 20.872H42.0134ZM32.6694 20.4773L37.0001 12.9787L41.3307 20.4773H32.6694ZM52.6801 20.872L47.6667 12.1893L42.6534 20.872H52.6801ZM43.3361 20.4773L47.6667 12.9787L51.9974 20.4773H43.3361ZM63.3467 20.872L58.3334 12.1893L53.3201 20.872H63.3467ZM54.0027 20.4773L58.3334 12.9787L62.6641 20.4773H54.0027ZM73.6148 14.4933V15.7413H71.4068V14.4933H73.6148ZM70.5428 16.6053H67.9615V15.0373H70.5428V16.6053ZM71.4068 16.456H73.6148V18.024H74.5002V12.232H73.6148V13.7893H71.4068V12.8187H70.5428V14.344H67.9615V12.8187H67.0975V17.3093H71.4068V16.456ZM71.3322 21.096C69.9028 21.096 69.0282 20.6907 69.0282 19.9973C69.0282 19.304 69.9028 18.888 71.3322 18.888C72.7828 18.888 73.6575 19.304 73.6575 19.9973C73.6575 20.6907 72.7828 21.096 71.3322 21.096ZM71.3322 18.216C69.3695 18.216 68.1535 18.8667 68.1535 19.9973C68.1535 21.128 69.3695 21.7787 71.3322 21.7787C73.3055 21.7787 74.5322 21.128 74.5322 19.9973C74.5322 18.8667 73.3055 18.216 71.3322 18.216ZM81.4433 17.8747V18.5253H83.3847V19.5067H84.2593V12.2213H83.3847V17.8747H81.4433ZM79.4913 13.256C80.398 13.256 81.0167 13.6613 81.0167 14.2693C81.0167 14.888 80.398 15.2933 79.4913 15.2933C78.5847 15.2933 77.966 14.888 77.966 14.2693C77.966 13.6613 78.5847 13.256 79.4913 13.256ZM79.4913 15.944C80.8887 15.944 81.8487 15.2933 81.8487 14.2693C81.8487 13.2667 80.8887 12.6053 79.4913 12.6053C78.094 12.6053 77.134 13.2667 77.134 14.2693C77.134 15.2933 78.094 15.944 79.4913 15.944ZM79.15 19.1653H80.0247V17.2773C80.8887 17.224 81.774 17.128 82.6167 17L82.542 16.3707C80.5153 16.6267 78.1473 16.648 76.3767 16.648L76.494 17.3733C77.2833 17.3733 78.2007 17.3627 79.15 17.32V19.1653ZM78.6167 20.8613V18.792H77.742V21.576H84.5047V20.8613H78.6167Z" fill="#222222"/>
<path d="M102.981 53H103.952V48.7973C104.539 48.2107 104.944 47.912 105.541 47.912C106.309 47.912 106.64 48.3707 106.64 49.4587V53H107.611V49.3307C107.611 47.848 107.056 47.0587 105.84 47.0587C105.051 47.0587 104.453 47.496 103.92 48.0293L103.952 46.8347V44.5093H102.981V53ZM111.285 53.1387C111.637 53.1387 112.021 53.032 112.351 52.9253L112.159 52.2C111.967 52.2747 111.701 52.3493 111.498 52.3493C110.826 52.3493 110.602 51.944 110.602 51.2293V47.9973H112.17V47.208H110.602V45.576H109.791L109.674 47.208L108.767 47.2613V47.9973H109.631V51.208C109.631 52.36 110.047 53.1387 111.285 53.1387ZM115.066 53.1387C115.418 53.1387 115.802 53.032 116.132 52.9253L115.94 52.2C115.748 52.2747 115.482 52.3493 115.279 52.3493C114.607 52.3493 114.383 51.944 114.383 51.2293V47.9973H115.951V47.208H114.383V45.576H113.572L113.455 47.208L112.548 47.2613V47.9973H113.412V51.208C113.412 52.36 113.828 53.1387 115.066 53.1387ZM117.263 55.4427H118.233V53.48L118.212 52.4667C118.735 52.8933 119.289 53.1387 119.812 53.1387C121.145 53.1387 122.329 51.9973 122.329 50.0133C122.329 48.232 121.519 47.0587 120.025 47.0587C119.353 47.0587 118.703 47.4427 118.18 47.8693H118.148L118.063 47.208H117.263V55.4427ZM119.652 52.328C119.268 52.328 118.756 52.168 118.233 51.72V48.68C118.799 48.1573 119.3 47.88 119.791 47.88C120.889 47.88 121.316 48.744 121.316 50.024C121.316 51.464 120.612 52.328 119.652 52.328ZM125.392 53.1387C126.757 53.1387 127.504 52.36 127.504 51.4213C127.504 50.3227 126.576 49.9813 125.733 49.6613C125.083 49.416 124.485 49.2133 124.485 48.6587C124.485 48.2107 124.827 47.8267 125.563 47.8267C126.075 47.8267 126.48 48.04 126.875 48.3387L127.344 47.7093C126.896 47.3573 126.267 47.0587 125.552 47.0587C124.293 47.0587 123.547 47.784 123.547 48.7013C123.547 49.6827 124.432 50.0773 125.243 50.376C125.883 50.6213 126.565 50.8773 126.565 51.4747C126.565 51.976 126.192 52.3813 125.424 52.3813C124.731 52.3813 124.208 52.104 123.707 51.6987L123.227 52.3387C123.781 52.7973 124.571 53.1387 125.392 53.1387ZM129.368 48.84C129.752 48.84 130.072 48.5307 130.072 48.104C130.072 47.656 129.752 47.3467 129.368 47.3467C128.984 47.3467 128.664 47.656 128.664 48.104C128.664 48.5307 128.984 48.84 129.368 48.84ZM129.368 53.1387C129.752 53.1387 130.072 52.84 130.072 52.4027C130.072 51.9547 129.752 51.6453 129.368 51.6453C128.984 51.6453 128.664 51.9547 128.664 52.4027C128.664 52.84 128.984 53.1387 129.368 53.1387ZM130.972 54.9093H131.686L134.876 44.5307H134.172L130.972 54.9093ZM135.149 54.9093H135.863L139.053 44.5307H138.349L135.149 54.9093ZM149.555 52.872L144.542 44.1893L139.528 52.872H149.555ZM140.211 52.4773L144.542 44.9787L148.872 52.4773H140.211ZM160.222 52.872L155.208 44.1893L150.195 52.872H160.222ZM150.878 52.4773L155.208 44.9787L159.539 52.4773H150.878ZM170.888 52.872L165.875 44.1893L160.862 52.872H170.888ZM161.544 52.4773L165.875 44.9787L170.206 52.4773H161.544ZM181.156 46.4933V47.7413H178.948V46.4933H181.156ZM178.084 48.6053H175.503V47.0373H178.084V48.6053ZM178.948 48.456H181.156V50.024H182.042V44.232H181.156V45.7893H178.948V44.8187H178.084V46.344H175.503V44.8187H174.639V49.3093H178.948V48.456ZM178.874 53.096C177.444 53.096 176.57 52.6907 176.57 51.9973C176.57 51.304 177.444 50.888 178.874 50.888C180.324 50.888 181.199 51.304 181.199 51.9973C181.199 52.6907 180.324 53.096 178.874 53.096ZM178.874 50.216C176.911 50.216 175.695 50.8667 175.695 51.9973C175.695 53.128 176.911 53.7787 178.874 53.7787C180.847 53.7787 182.074 53.128 182.074 51.9973C182.074 50.8667 180.847 50.216 178.874 50.216ZM188.985 49.8747V50.5253H190.926V51.5067H191.801V44.2213H190.926V49.8747H188.985ZM187.033 45.256C187.94 45.256 188.558 45.6613 188.558 46.2693C188.558 46.888 187.94 47.2933 187.033 47.2933C186.126 47.2933 185.508 46.888 185.508 46.2693C185.508 45.6613 186.126 45.256 187.033 45.256ZM187.033 47.944C188.43 47.944 189.39 47.2933 189.39 46.2693C189.39 45.2667 188.43 44.6053 187.033 44.6053C185.636 44.6053 184.676 45.2667 184.676 46.2693C184.676 47.2933 185.636 47.944 187.033 47.944ZM186.692 51.1653H187.566V49.2773C188.43 49.224 189.316 49.128 190.158 49L190.084 48.3707C188.057 48.6267 185.689 48.648 183.918 48.648L184.036 49.3733C184.825 49.3733 185.742 49.3627 186.692 49.32V51.1653ZM186.158 52.8613V50.792H185.284V53.576H192.046V52.8613H186.158ZM204.923 45.0107H201.542V44.0933H200.667V45.0107H197.222V45.6933H204.923V45.0107ZM198.694 51.6027H203.515V53H198.694V51.6027ZM197.84 53.6613H204.368V50.9413H197.84V53.6613ZM198.928 47.4213C198.928 46.952 199.707 46.6853 201.104 46.6853C202.48 46.6853 203.259 46.952 203.259 47.4213C203.259 47.9013 202.48 48.168 201.104 48.168C199.707 48.168 198.928 47.9013 198.928 47.4213ZM201.542 49.5013V48.776C203.227 48.712 204.187 48.2427 204.187 47.4213C204.187 46.536 203.067 46.0667 201.104 46.0667C199.12 46.0667 198.011 46.536 198.011 47.4213C198.011 48.2427 198.96 48.712 200.667 48.776V49.5013H196.774V50.1947H205.414V49.5013H201.542ZM208.261 46.1413H209.456V50.632C209.05 50.6533 208.656 50.664 208.261 50.6747V46.1413ZM210.256 46.1413H211.045V45.4373H206.672V46.1413H207.461V50.696C207.098 50.7067 206.778 50.7067 206.49 50.7067L206.576 51.432C207.824 51.432 209.829 51.3893 211.312 51.112L211.258 50.472C210.949 50.5147 210.597 50.5467 210.256 50.5787V46.1413ZM212.069 47.8693H210.757V48.6373H212.069V53.288H212.89V44.456H212.069V47.8693ZM213.914 44.232V53.7893H214.757V44.232H213.914ZM223.353 44.2213V53.8107H224.228V44.2213H223.353ZM219.183 44.9573C217.764 44.9573 216.751 46.2587 216.751 48.296C216.751 50.3333 217.764 51.6347 219.183 51.6347C220.601 51.6347 221.615 50.3333 221.615 48.296C221.615 46.2587 220.601 44.9573 219.183 44.9573ZM219.183 45.7467C220.111 45.7467 220.772 46.7493 220.772 48.296C220.772 49.8533 220.111 50.856 219.183 50.856C218.244 50.856 217.583 49.8533 217.583 48.296C217.583 46.7493 218.244 45.7467 219.183 45.7467ZM229.625 45.928H231.875V45.2027H226.531V45.928H228.75V47.144C228.75 48.7973 227.587 50.6 226.211 51.2507L226.723 51.9547C227.811 51.4 228.75 50.1947 229.187 48.7973C229.646 50.1093 230.585 51.208 231.694 51.72L232.185 51.016C230.777 50.4187 229.625 48.7653 229.625 47.144V45.928ZM233.166 44.232V53.7893H234.041V44.232H233.166ZM239.867 48.872C241.349 48.616 242.757 47.816 243.344 46.6853C243.92 47.816 245.339 48.616 246.821 48.872L247.163 48.1787C245.477 47.9333 243.824 46.8347 243.824 45.576V45.5227H246.821V44.8187H239.835V45.5227H242.853V45.576C242.853 46.8347 241.2 47.9333 239.536 48.1787L239.867 48.872ZM247.664 49.672H239.024V50.3867H242.885V53.7893H243.76V50.3867H247.675L247.664 49.672ZM257.082 48.8933C255.407 48.5947 253.583 47.1867 253.583 45.5973V44.8613H252.666V45.5973C252.666 47.1867 250.852 48.5947 249.178 48.8933L249.54 49.6187C251.012 49.3093 252.506 48.3173 253.124 46.952C253.743 48.3173 255.247 49.3093 256.708 49.6187L257.082 48.8933ZM253.562 51.8267V49.5013H252.687V51.8267H248.826V52.5413H257.508V51.8267H253.562ZM258.19 54.9093H258.905L262.094 44.5307H261.39L258.19 54.9093Z" fill="#222222"/>
<path fill-rule="evenodd" clip-rule="evenodd" d="M14.4695 16.6667C14.4695 19.537 16.7964 21.8638 19.6667 21.8638C22.537 21.8638 24.8638 19.537 24.8638 16.6667C24.8638 13.7964 22.537 11.4695 19.6667 11.4695C16.7964 11.4695 14.4695 13.7964 14.4695 16.6667ZM19.6667 10C15.9848 10 13 12.9848 13 16.6667C13 20.3486 15.9848 23.3333 19.6667 23.3333C23.3486 23.3333 26.3333 20.3486 26.3333 16.6667C26.3333 12.9848 23.3486 10 19.6667 10Z" fill="#00AB91"/>
<path fill-rule="evenodd" clip-rule="evenodd" d="M20.6667 15.6666V12.6666L18.6667 12.6666L18.6667 15.6666H15.6667V17.6666H18.6667L18.6667 20.6666H20.6667V17.6666H23.6667V15.6666H20.6667Z" fill="#00AB91"/>
<path fill-rule="evenodd" clip-rule="evenodd" d="M120.646 13.6464C120.842 13.4512 121.158 13.4512 121.354 13.6464L127.741 20.0335C127.936 20.2288 127.936 20.5454 127.741 20.7406C127.545 20.9359 127.229 20.9359 127.034 20.7406L120.646 14.3536C120.451 14.1583 120.451 13.8417 120.646 13.6464Z" fill="#222222"/>
<path fill-rule="evenodd" clip-rule="evenodd" d="M120.646 20.7407C120.451 20.5454 120.451 20.2288 120.646 20.0336L127.034 13.6465C127.229 13.4512 127.545 13.4512 127.741 13.6465C127.936 13.8417 127.936 14.1583 127.741 14.3536L121.354 20.7407C121.158 20.9359 120.842 20.9359 120.646 20.7407Z" fill="#222222"/>
<path fill-rule="evenodd" clip-rule="evenodd" d="M156.194 12.1772C156.47 12.1772 156.694 12.4011 156.694 12.6772L156.694 21.71C156.694 21.9861 156.47 22.21 156.194 22.21C155.917 22.21 155.694 21.9861 155.694 21.71L155.694 12.6772C155.694 12.4011 155.917 12.1772 156.194 12.1772Z" fill="#222222"/>
<path fill-rule="evenodd" clip-rule="evenodd" d="M151.177 17.1935C151.177 16.9173 151.401 16.6935 151.677 16.6935L160.71 16.6935C160.986 16.6935 161.21 16.9173 161.21 17.1935C161.21 17.4696 160.986 17.6935 160.71 17.6935L151.677 17.6935C151.401 17.6935 151.177 17.4696 151.177 17.1935Z" fill="#222222"/>
<path fill-rule="evenodd" clip-rule="evenodd" d="M20.9398 42.8523C20.6741 42.5973 20.2521 42.606 19.9971 42.8717L15.5191 47.5384C15.2716 47.7963 15.2716 48.2036 15.5191 48.4615L19.9971 53.1282C20.2521 53.3939 20.6741 53.4026 20.9398 53.1477C21.2054 52.8927 21.2141 52.4707 20.9592 52.205L16.9241 48L20.9592 43.7949C21.2141 43.5292 21.2054 43.1072 20.9398 42.8523Z" fill="#5F6368"/>
<path fill-rule="evenodd" clip-rule="evenodd" d="M16.178 48.0212C16.178 48.3894 16.4765 48.6879 16.8447 48.6879H27.3334C27.7016 48.6879 28.0001 48.3894 28.0001 48.0212C28.0001 47.653 27.7016 47.3545 27.3334 47.3545H16.8447C16.4765 47.3545 16.178 47.653 16.178 48.0212Z" fill="#5F6368"/>
<path fill-rule="evenodd" clip-rule="evenodd" d="M47.0602 42.8523C47.3259 42.5973 47.7479 42.606 48.0029 42.8717L52.4809 47.5384C52.7284 47.7963 52.7284 48.2036 52.4809 48.4615L48.0029 53.1282C47.7479 53.3939 47.3259 53.4026 47.0602 53.1477C46.7946 52.8927 46.7859 52.4707 47.0408 52.205L51.0759 48L47.0408 43.7949C46.7859 43.5292 46.7946 43.1072 47.0602 42.8523Z" fill="#BABCBE"/>
<path fill-rule="evenodd" clip-rule="evenodd" d="M51.822 48.0212C51.822 48.3894 51.5235 48.6879 51.1553 48.6879H40.6666C40.2984 48.6879 39.9999 48.3894 39.9999 48.0212C39.9999 47.653 40.2984 47.3545 40.6666 47.3545H51.1553C51.5235 47.3545 51.822 47.653 51.822 48.0212Z" fill="#BABCBE"/>
<path d="M70 53.3333C68.5222 53.3333 67.2639 52.8138 66.225 51.775C65.1861 50.7361 64.6667 49.4777 64.6667 48C64.6667 46.5222 65.1861 45.2638 66.225 44.225C67.2639 43.1861 68.5222 42.6666 70 42.6666C70.9445 42.6666 71.7722 42.8583 72.4834 43.2416C73.1945 43.625 73.8111 44.15 74.3334 44.8166V43.1666C74.3334 42.8905 74.5572 42.6666 74.8334 42.6666C75.1095 42.6666 75.3334 42.8905 75.3334 43.1666V45.9C75.3334 46.4522 74.8856 46.9 74.3334 46.9H71.6C71.3239 46.9 71.1 46.6761 71.1 46.4C71.1 46.1238 71.3239 45.9 71.6 45.9H73.9C73.4778 45.2333 72.9389 44.6944 72.2834 44.2833C71.6278 43.8722 70.8667 43.6666 70 43.6666C68.7889 43.6666 67.7639 44.0861 66.925 44.925C66.0861 45.7638 65.6667 46.7888 65.6667 48C65.6667 49.2111 66.0861 50.2361 66.925 51.075C67.7639 51.9138 68.7889 52.3333 70 52.3333C70.9222 52.3333 71.7667 52.0694 72.5334 51.5416C73.1977 51.0843 73.6868 50.4998 74.0007 49.788C74.0885 49.5891 74.2792 49.45 74.4966 49.45C74.8336 49.45 75.0787 49.7721 74.9513 50.0841C74.5929 50.9618 74.0258 51.6893 73.25 52.2666C72.2945 52.9777 71.2111 53.3333 70 53.3333Z" fill="#5F6368"/>
<rect y="68" width="408" height="1" fill="#E8EBEE"/>
<rect x="91" y="104" width="226" height="34" rx="4.85714" fill="#00AB91"/>
<path d="M132.44 122.997H130.763V126.389H138.868V125.055H132.44V122.997ZM132.262 117.599C132.262 116.887 133.202 116.506 134.765 116.506C136.34 116.506 137.28 116.887 137.28 117.599C137.28 118.323 136.34 118.678 134.765 118.678C133.202 118.678 132.262 118.323 132.262 117.599ZM135.59 120.914V119.974C137.674 119.796 139.008 118.907 139.008 117.599C139.008 116.112 137.318 115.185 134.765 115.185C132.224 115.185 130.535 116.112 130.535 117.599C130.535 118.907 131.856 119.784 133.914 119.974V120.914H129.48V122.248H140.049V120.914H135.59ZM143.3 120.406H147.01V115.884H141.636V117.217H145.358V119.085H141.649V123.912H142.64C144.672 123.912 146.286 123.836 148.039 123.518L147.886 122.159C146.362 122.426 144.977 122.515 143.3 122.527V120.406ZM152.028 119.301H150.351V114.88H148.674V126.618H150.351V120.685H152.028V119.301ZM162.57 114.905H160.881V123.302H162.57V114.905ZM154.656 118.615C154.656 117.649 155.342 117.09 156.206 117.09C157.082 117.09 157.743 117.649 157.743 118.615C157.743 119.555 157.082 120.127 156.206 120.127C155.342 120.127 154.656 119.555 154.656 118.615ZM159.382 118.615C159.382 116.887 157.997 115.642 156.206 115.642C154.415 115.642 153.017 116.887 153.017 118.615C153.017 120.317 154.415 121.575 156.206 121.575C157.997 121.575 159.382 120.317 159.382 118.615ZM156.46 125.055V122.477H154.783V126.389H162.862V125.055H156.46ZM168.854 119.847C171.065 119.644 172.5 118.831 173.123 117.713C173.733 118.831 175.181 119.644 177.378 119.847L177.963 118.539C175.74 118.348 174.596 117.573 174.33 116.773H177.455V115.439H168.804V116.773H171.916C171.649 117.573 170.506 118.348 168.296 118.539L168.854 119.847ZM173.097 125.309C171.535 125.309 170.735 125.03 170.735 124.42C170.735 123.81 171.535 123.544 173.097 123.544C174.66 123.544 175.46 123.81 175.46 124.42C175.46 125.03 174.66 125.309 173.097 125.309ZM173.097 122.248C170.569 122.248 169.045 123.048 169.045 124.42C169.045 125.805 170.569 126.592 173.097 126.592C175.625 126.592 177.162 125.805 177.162 124.42C177.162 123.048 175.625 122.248 173.097 122.248ZM167.838 120.292V121.613H178.407V120.292H167.838ZM183.881 119.796H181.658V117.065H183.881V119.796ZM187.629 117.916V118.92H185.52V117.916H187.629ZM185.52 120.254H187.629V121.753H189.306V114.893H187.629V116.582H185.52V115.731H180.007V121.117H185.52V120.254ZM185.342 125.309C183.818 125.309 183.018 124.992 183.018 124.319C183.018 123.645 183.818 123.328 185.342 123.328C186.879 123.328 187.68 123.645 187.68 124.319C187.68 124.992 186.879 125.309 185.342 125.309ZM185.342 122.045C182.865 122.045 181.341 122.883 181.341 124.319C181.341 125.754 182.865 126.592 185.342 126.592C187.832 126.592 189.357 125.754 189.357 124.319C189.357 122.883 187.832 122.045 185.342 122.045ZM195.606 115.795H193.916V117.484C193.916 119.707 193.027 121.981 191.045 122.896L192.087 124.242C193.395 123.582 194.272 122.362 194.78 120.863C195.263 122.273 196.114 123.417 197.397 124.039L198.388 122.705C196.457 121.841 195.606 119.695 195.606 117.484V115.795ZM199.353 114.88V118.551H197.105V119.898H199.353V126.618H201.03V114.88H199.353ZM210.49 119.225H208.191V118.056H210.49V119.225ZM212.141 115.401H210.49V116.798H208.191V115.401H206.539V120.533H212.141V115.401ZM209.359 124.471H215.406V121.295H207.682V122.566H213.755V123.277H207.695V126.504H215.749V125.208H209.359V124.471ZM215.406 117.154V114.893H213.729V120.838H215.406V118.513H216.943V117.154H215.406ZM225.53 125.119H220.804V124.065H225.53V125.119ZM225.53 122.769H220.804V121.549H219.14V126.465H227.206V121.549H225.53V122.769ZM226.978 119.453C227.232 118.145 227.232 117.217 227.232 116.303V115.363H219.191V116.697H225.58C225.58 117.472 225.542 118.348 225.314 119.453H217.882V120.8H228.477V119.453H226.978ZM237.238 122.553H234.888V119.961H237.238V122.553ZM237.238 118.653H234.888V115.82H233.224V123.887H238.902V115.82H237.238V118.653ZM243.729 119.25H242.027V114.905H240.35V126.592H242.027V120.647H243.729V119.25ZM250.677 123.937V122.197H254.221V120.851H247.438V119.542H253.955V115.642H245.761V116.976H252.303V118.234H245.774V122.197H249V123.937H244.554V125.309H255.149V123.937H250.677ZM256.774 116.087V117.446H260.597C260.293 120.038 258.844 121.892 256.126 123.29L257.066 124.573C260.953 122.604 262.287 119.593 262.287 116.087H256.774ZM267.038 119.352H265.399V114.88H263.722V126.567H265.399V120.736H267.038V119.352ZM268.574 116.1V117.433H272.474C272.233 120.025 270.937 121.854 267.952 123.29L268.828 124.611C272.982 122.604 274.189 119.682 274.189 116.1H268.574ZM275.98 114.88V126.58H277.67V114.88H275.98Z" fill="white"/>
<path fill-rule="evenodd" clip-rule="evenodd" d="M125.629 119.498C125.629 114.089 126.977 108.88 129.471 104H279.157C281.652 108.88 283 114.089 283 119.498C283 126.034 281.032 132.276 277.452 138H131.176C127.597 132.276 125.629 126.034 125.629 119.498Z" fill="black" fill-opacity="0.1"/>
<path d="M295.38 111C288.542 111 283 116.571 283 123.426C283 130.129 288.271 135.595 294.913 135.836C295.063 135.852 295.214 135.852 295.38 135.852C296.313 135.852 297.247 135.731 298.136 135.55L297.443 130.175L296.855 125.63L300.47 128.302L304.792 131.518C305.5 130.703 306.087 129.782 306.554 128.816C307.352 127.17 307.789 125.358 307.789 123.426C307.774 116.571 302.232 111 295.38 111Z" fill="#FF6652" fill-opacity="0.4"/>
<path d="M302.428 123.426C302.428 124.15 302.307 124.86 302.111 125.509C301.78 126.581 301.223 127.532 300.47 128.317L296.855 125.63L297.443 130.175C296.795 130.371 296.102 130.476 295.395 130.476C294.988 130.476 294.596 130.446 294.22 130.356C290.907 129.797 288.361 126.898 288.361 123.411C288.361 119.5 291.524 116.36 295.395 116.36C299.28 116.375 302.428 119.515 302.428 123.426Z" fill="#FF6652"/>
<path d="M319.521 171C318.06 171 316.644 170.26 315.861 168.932L310.485 159.827L303.165 167.814C302.488 168.554 301.494 168.811 300.545 168.509C299.611 168.207 298.948 167.422 298.828 166.456L293.376 124.256C293.256 123.26 293.723 122.293 294.581 121.795C295.454 121.282 296.554 121.342 297.367 121.946L331.991 147.673C332.789 148.262 333.15 149.244 332.939 150.21C332.729 151.176 331.96 151.916 330.997 152.127L320.334 154.317L325.65 163.33C326.223 164.296 326.373 165.414 326.087 166.501C325.801 167.588 325.093 168.494 324.099 169.052L321.614 170.457C320.951 170.819 320.244 171 319.521 171Z" fill="white"/>
<path d="M319.521 171C318.06 171 316.644 170.26 315.861 168.932L310.485 159.827L303.165 167.814C302.488 168.554 301.494 168.811 300.545 168.509C299.611 168.207 298.948 167.422 298.828 166.456L293.376 124.256C293.256 123.26 293.723 122.293 294.581 121.795C295.454 121.282 296.554 121.342 297.367 121.946L331.991 147.673C332.789 148.262 333.15 149.244 332.939 150.21C332.729 151.176 331.96 151.916 330.997 152.127L320.334 154.317L325.65 163.33C326.223 164.296 326.373 165.414 326.087 166.501C325.801 167.588 325.093 168.494 324.099 169.052L321.614 170.457C320.951 170.819 320.244 171 319.521 171ZM311.072 154.317L318.707 167.256C318.963 167.678 319.551 167.829 319.988 167.573L322.488 166.169C322.698 166.048 322.849 165.867 322.909 165.64C322.954 165.489 322.97 165.263 322.819 165.021L315.138 152.007L328.557 149.244L296.9 125.721L301.9 164.342L311.072 154.317Z" fill="#FF4D36"/>
</svg>
