<svg width="408" height="171" viewBox="0 0 408 171" fill="none" xmlns="http://www.w3.org/2000/svg">
<rect x="2" y="2" width="404" height="42" rx="6" fill="white" stroke="#00C73A" stroke-width="4"/>
<path d="M362 0H400C404.418 0 408 3.58172 408 8V38C408 42.4183 404.418 46 400 46H362V0Z" fill="#00C73A"/>
<path d="M341.918 27.006C341.423 27.5418 340.577 27.5418 340.082 27.006L336.01 22.5982C335.27 21.7976 335.838 20.5 336.928 20.5L345.072 20.5C346.162 20.5 346.73 21.7976 345.99 22.5982L341.918 27.006Z" fill="#00C73A"/>
<path d="M396.62 32.7821L392.685 28.8477C394.224 26.9075 395.058 24.5017 395.05 22.0252C395.051 20.0212 394.505 18.055 393.472 16.3379C392.439 14.6207 390.957 13.2177 389.187 12.2795C387.416 11.3413 385.423 10.9035 383.422 11.0131C381.421 11.1227 379.488 11.7756 377.83 12.9017C376.172 14.0277 374.853 15.5842 374.014 17.4039C373.174 19.2236 372.847 21.2377 373.066 23.2296C373.286 25.2215 374.044 27.1159 375.26 28.7091C376.475 30.3023 378.102 31.534 379.965 32.272C380.125 32.3449 380.298 32.3846 380.474 32.3886C380.65 32.3926 380.825 32.3609 380.988 32.2952C381.151 32.2296 381.299 32.1315 381.423 32.0069C381.547 31.8822 381.644 31.7337 381.709 31.5703C381.774 31.4068 381.805 31.2319 381.8 31.0562C381.795 30.8804 381.755 30.7075 381.681 30.5479C381.607 30.3883 381.502 30.2453 381.371 30.1277C381.241 30.0101 381.087 29.9203 380.921 29.8637C379.234 29.1939 377.808 27.9979 376.855 26.4534C375.902 24.9088 375.473 23.0981 375.631 21.2902C375.789 19.4822 376.526 17.7734 377.732 16.4174C378.938 15.0615 380.55 14.1308 382.327 13.7635C384.104 13.3961 385.953 13.6118 387.598 14.3785C389.243 15.1452 390.596 16.422 391.458 18.0192C392.32 19.6165 392.643 21.4491 392.381 23.2448C392.118 25.0406 391.283 26.7037 390 27.9873C389.867 28.1258 389.766 28.2914 389.703 28.4728C389.641 28.6542 389.618 28.847 389.637 29.038C389.669 29.3506 389.813 29.641 390.043 29.8551L394.799 34.611C395.043 34.8541 395.373 34.9904 395.717 34.99C396.062 34.9896 396.392 34.8525 396.635 34.6088C396.878 34.3652 397.014 34.0349 397.014 33.6907C397.013 33.3465 396.876 33.0166 396.632 32.7735L396.62 32.7821Z" fill="white"/>
<path d="M385.313 32.86C386.03 32.86 386.611 32.2793 386.611 31.5629C386.611 30.8466 386.03 30.2659 385.313 30.2659C384.597 30.2659 384.016 30.8466 384.016 31.5629C384.016 32.2793 384.597 32.86 385.313 32.86Z" fill="white"/>
<path d="M33.46 30.784L25 16.132L16.54 30.784H33.46ZM17.908 29.992L25 17.716L32.092 29.992H17.908ZM51.46 30.784L43 16.132L34.54 30.784H51.46ZM35.908 29.992L43 17.716L50.092 29.992H35.908ZM69.46 30.784L61 16.132L52.54 30.784H69.46ZM53.908 29.992L61 17.716L68.092 29.992H53.908ZM86.3361 20.272V21.784H83.3841V20.272H86.3361ZM81.0621 23.062H77.9121V21.01H81.0621V23.062ZM83.3841 23.674H86.3361V25.87H88.7121V15.97H86.3361V18.382H83.3841V16.96H81.0621V19.192H77.9121V16.978H75.5541V24.952H83.3841V23.674ZM83.0961 30.748C80.9361 30.748 79.8021 30.298 79.8021 29.362C79.8021 28.426 80.9361 27.976 83.0961 27.976C85.2741 27.976 86.4081 28.426 86.4081 29.362C86.4081 30.298 85.2741 30.748 83.0961 30.748ZM83.0961 26.176C79.5861 26.176 77.4261 27.346 77.4261 29.362C77.4261 31.378 79.5861 32.548 83.0961 32.548C86.6241 32.548 88.7841 31.378 88.7841 29.362C88.7841 27.346 86.6241 26.176 83.0961 26.176ZM99.8707 25.6V27.22H102.985V28.534H105.361V15.97H102.985V25.6H99.8707ZM96.6847 18.256C97.7827 18.256 98.5567 18.688 98.5567 19.498C98.5567 20.308 97.7827 20.722 96.6847 20.722C95.5687 20.722 94.7947 20.308 94.7947 19.498C94.7947 18.688 95.5687 18.256 96.6847 18.256ZM96.6847 22.45C99.0967 22.45 100.807 21.262 100.807 19.498C100.807 17.734 99.0967 16.528 96.6847 16.528C94.2547 16.528 92.5627 17.734 92.5627 19.498C92.5627 21.262 94.2547 22.45 96.6847 22.45ZM95.8027 30.37V28.102H98.0887V24.97C99.4207 24.862 100.753 24.718 102.049 24.502L101.887 22.81C98.3947 23.26 94.3627 23.296 91.3387 23.314L91.6447 25.204C92.8867 25.204 94.2727 25.186 95.7307 25.114V27.328H93.4267V32.26H105.721V30.37H95.8027Z" fill="#333333"/>
<rect x="0.5" y="58.5" width="407" height="112" rx="7.5" fill="white" stroke="#E8EBEE"/>
<path d="M50.73 81.892L46.5 74.566L42.27 81.892H50.73ZM42.846 81.559L46.5 75.232L50.154 81.559H42.846ZM59.73 81.892L55.5 74.566L51.27 81.892H59.73ZM51.846 81.559L55.5 75.232L59.154 81.559H51.846ZM68.73 81.892L64.5 74.566L60.27 81.892H68.73ZM60.846 81.559L64.5 75.232L68.154 81.559H60.846ZM77.3937 76.51V77.563H75.5307V76.51H77.3937ZM74.8017 78.292H72.6237V76.969H74.8017V78.292ZM75.5307 78.166H77.3937V79.489H78.1407V74.602H77.3937V75.916H75.5307V75.097H74.8017V76.384H72.6237V75.097H71.8947V78.886H75.5307V78.166ZM75.4677 82.081C74.2617 82.081 73.5237 81.739 73.5237 81.154C73.5237 80.569 74.2617 80.218 75.4677 80.218C76.6917 80.218 77.4297 80.569 77.4297 81.154C77.4297 81.739 76.6917 82.081 75.4677 82.081ZM75.4677 79.651C73.8117 79.651 72.7857 80.2 72.7857 81.154C72.7857 82.108 73.8117 82.657 75.4677 82.657C77.1327 82.657 78.1677 82.108 78.1677 81.154C78.1677 80.2 77.1327 79.651 75.4677 79.651ZM83.999 79.363V79.912H85.637V80.74H86.375V74.593H85.637V79.363H83.999ZM82.352 75.466C83.117 75.466 83.639 75.808 83.639 76.321C83.639 76.843 83.117 77.185 82.352 77.185C81.587 77.185 81.065 76.843 81.065 76.321C81.065 75.808 81.587 75.466 82.352 75.466ZM82.352 77.734C83.531 77.734 84.341 77.185 84.341 76.321C84.341 75.475 83.531 74.917 82.352 74.917C81.173 74.917 80.363 75.475 80.363 76.321C80.363 77.185 81.173 77.734 82.352 77.734ZM82.064 80.452H82.802V78.859C83.531 78.814 84.278 78.733 84.989 78.625L84.926 78.094C83.216 78.31 81.218 78.328 79.724 78.328L79.823 78.94C80.489 78.94 81.263 78.931 82.064 78.895V80.452ZM81.614 81.883V80.137H80.876V82.486H86.582V81.883H81.614ZM96.937 75.259H94.084V74.485H93.346V75.259H90.439V75.835H96.937V75.259ZM91.681 80.821H95.749V82H91.681V80.821ZM90.961 82.558H96.469V80.263H90.961V82.558ZM91.879 77.293C91.879 76.897 92.536 76.672 93.715 76.672C94.876 76.672 95.533 76.897 95.533 77.293C95.533 77.698 94.876 77.923 93.715 77.923C92.536 77.923 91.879 77.698 91.879 77.293ZM94.084 79.048V78.436C95.506 78.382 96.316 77.986 96.316 77.293C96.316 76.546 95.371 76.15 93.715 76.15C92.041 76.15 91.105 76.546 91.105 77.293C91.105 77.986 91.906 78.382 93.346 78.436V79.048H90.061V79.633H97.351V79.048H94.084ZM99.7533 76.213H100.761V80.002C100.419 80.02 100.086 80.029 99.7533 80.038V76.213ZM101.436 76.213H102.102V75.619H98.4123V76.213H99.0783V80.056C98.7723 80.065 98.5023 80.065 98.2593 80.065L98.3313 80.677C99.3843 80.677 101.076 80.641 102.327 80.407L102.282 79.867C102.021 79.903 101.724 79.93 101.436 79.957V76.213ZM102.966 77.671H101.859V78.319H102.966V82.243H103.659V74.791H102.966V77.671ZM104.523 74.602V82.666H105.234V74.602H104.523ZM112.488 74.593V82.684H113.226V74.593H112.488ZM108.969 75.214C107.772 75.214 106.917 76.312 106.917 78.031C106.917 79.75 107.772 80.848 108.969 80.848C110.166 80.848 111.021 79.75 111.021 78.031C111.021 76.312 110.166 75.214 108.969 75.214ZM108.969 75.88C109.752 75.88 110.31 76.726 110.31 78.031C110.31 79.345 109.752 80.191 108.969 80.191C108.177 80.191 107.619 79.345 107.619 78.031C107.619 76.726 108.177 75.88 108.969 75.88ZM117.779 76.033H119.678V75.421H115.169V76.033H117.041V77.059C117.041 78.454 116.06 79.975 114.899 80.524L115.331 81.118C116.249 80.65 117.041 79.633 117.41 78.454C117.797 79.561 118.589 80.488 119.525 80.92L119.939 80.326C118.751 79.822 117.779 78.427 117.779 77.059V76.033ZM120.767 74.602V82.666H121.505V74.602H120.767ZM125.911 78.517C127.162 78.301 128.35 77.626 128.845 76.672C129.331 77.626 130.528 78.301 131.779 78.517L132.067 77.932C130.645 77.725 129.25 76.798 129.25 75.736V75.691H131.779V75.097H125.884V75.691H128.431V75.736C128.431 76.798 127.036 77.725 125.632 77.932L125.911 78.517ZM132.49 79.192H125.2V79.795H128.458V82.666H129.196V79.795H132.499L132.49 79.192ZM140.436 78.535C139.023 78.283 137.484 77.095 137.484 75.754V75.133H136.71V75.754C136.71 77.095 135.18 78.283 133.767 78.535L134.073 79.147C135.315 78.886 136.575 78.049 137.097 76.897C137.619 78.049 138.888 78.886 140.121 79.147L140.436 78.535ZM137.466 81.01V79.048H136.728V81.01H133.47V81.613H140.796V81.01H137.466Z" fill="#868686"/>
<path fill-rule="evenodd" clip-rule="evenodd" d="M25.4695 78.6667C25.4695 81.537 27.7964 83.8638 30.6667 83.8638C33.537 83.8638 35.8638 81.537 35.8638 78.6667C35.8638 75.7964 33.537 73.4695 30.6667 73.4695C27.7964 73.4695 25.4695 75.7964 25.4695 78.6667ZM30.6667 72C26.9848 72 24 74.9848 24 78.6667C24 82.3486 26.9848 85.3333 30.6667 85.3333C34.3486 85.3333 37.3333 82.3486 37.3333 78.6667C37.3333 74.9848 34.3486 72 30.6667 72Z" fill="#00AB91"/>
<path fill-rule="evenodd" clip-rule="evenodd" d="M31.6665 77.6667V74.6667L29.6665 74.6667L29.6665 77.6667H26.6665V79.6667H29.6665L29.6665 82.6667H31.6665V79.6667H34.6665V77.6667H31.6665Z" fill="#00AB91"/>
<path d="M38.55 106.82L31.5 94.61L24.45 106.82H38.55ZM25.59 106.16L31.5 95.93L37.41 106.16H25.59ZM53.55 106.82L46.5 94.61L39.45 106.82H53.55ZM40.59 106.16L46.5 95.93L52.41 106.16H40.59ZM68.55 106.82L61.5 94.61L54.45 106.82H68.55ZM55.59 106.16L61.5 95.93L67.41 106.16H55.59ZM83.2944 97.464V98.808H80.6704V97.464H83.2944ZM78.6064 99.944H75.8064V98.12H78.6064V99.944ZM80.6704 100.488H83.2944V102.44H85.4064V93.64H83.2944V95.784H80.6704V94.52H78.6064V96.504H75.8064V94.536H73.7104V101.624H80.6704V100.488ZM80.4144 106.776C78.4944 106.776 77.4864 106.376 77.4864 105.544C77.4864 104.712 78.4944 104.312 80.4144 104.312C82.3504 104.312 83.3584 104.712 83.3584 105.544C83.3584 106.376 82.3504 106.776 80.4144 106.776ZM80.4144 102.712C77.2944 102.712 75.3744 103.752 75.3744 105.544C75.3744 107.336 77.2944 108.376 80.4144 108.376C83.5504 108.376 85.4704 107.336 85.4704 105.544C85.4704 103.752 83.5504 102.712 80.4144 102.712ZM95.3252 102.2V103.64H98.0932V104.808H100.205V93.64H98.0932V102.2H95.3252ZM92.4932 95.672C93.4692 95.672 94.1572 96.056 94.1572 96.776C94.1572 97.496 93.4692 97.864 92.4932 97.864C91.5012 97.864 90.8132 97.496 90.8132 96.776C90.8132 96.056 91.5012 95.672 92.4932 95.672ZM92.4932 99.4C94.6372 99.4 96.1572 98.344 96.1572 96.776C96.1572 95.208 94.6372 94.136 92.4932 94.136C90.3332 94.136 88.8292 95.208 88.8292 96.776C88.8292 98.344 90.3332 99.4 92.4932 99.4ZM91.7092 106.44V104.424H93.7412V101.64C94.9252 101.544 96.1092 101.416 97.2612 101.224L97.1172 99.72C94.0132 100.12 90.4292 100.152 87.7412 100.168L88.0132 101.848C89.1172 101.848 90.3492 101.832 91.6452 101.768V103.736H89.5972V108.12H100.525V106.44H91.7092Z" fill="#0C43B7"/>
<path d="M27.809 131.969C28.966 131.969 29.538 132.788 29.538 134.075C29.538 135.375 28.823 136.246 27.913 136.246C26.717 136.246 26.002 135.167 25.859 133.191C26.444 132.32 27.211 131.969 27.809 131.969ZM27.913 137.169C29.395 137.169 30.643 135.921 30.643 134.075C30.643 132.086 29.616 131.085 28.004 131.085C27.25 131.085 26.418 131.527 25.833 132.242C25.885 129.278 26.99 128.277 28.29 128.277C28.875 128.277 29.447 128.55 29.824 129.005L30.474 128.264C29.954 127.705 29.239 127.289 28.251 127.289C26.405 127.289 24.728 128.719 24.728 132.45C24.728 135.596 26.08 137.169 27.913 137.169ZM32.3419 127.809V128.68H35.8389C35.6829 131.098 34.5779 133.204 31.8999 134.699L32.5239 135.466C35.8389 133.594 36.8919 130.812 36.8919 127.809H32.3419ZM40.7659 126.301V130.994H39.1799V126.613H38.1789V137.377H39.1799V131.865H40.7659V137.962H41.7929V126.301H40.7659ZM52.9541 129.525V130.396H55.2941V134.855H56.3731V126.314H55.2941V129.525H52.9541ZM53.6431 132.268C51.9531 131.67 50.8091 130.214 50.8091 128.693V128.121H53.3701V127.25H47.1431V128.121H49.7431V128.706C49.7431 130.357 48.5341 131.904 46.8051 132.528L47.3641 133.36C48.7291 132.866 49.7951 131.787 50.3021 130.461C50.8091 131.657 51.8101 132.632 53.1101 133.1L53.6431 132.268ZM49.9901 136.831V134.101H48.9111V137.702H56.6981V136.831H49.9901ZM66.8631 130.084H61.1171V127.705H66.8631V130.084ZM67.9161 126.847H60.0771V130.942H67.9161V126.847ZM61.1171 134.374H60.0511V137.702H68.1111V136.831H61.1171V134.374ZM58.6991 132.268V133.126H63.5481V135.479H64.6141V133.126H69.2941V132.268H58.6991ZM80.5251 126.301H79.4981V135.05H80.5251V126.301ZM77.2231 134.712H78.2241V126.535H77.2231V129.239H75.4031V130.11H77.2231V134.712ZM76.4171 132.255C74.9611 131.592 74.1291 130.214 74.1291 128.836V127.12H73.1021V128.836C73.1021 130.227 72.2181 131.826 70.7101 132.554L71.3081 133.373C72.4001 132.827 73.2061 131.813 73.6221 130.669C74.0251 131.709 74.7791 132.58 75.8321 133.074L76.4171 132.255ZM73.9861 136.831V133.984H72.9201V137.702H80.8631V136.831H73.9861ZM84.2421 131.501H88.0641V130.643H84.2421V128.238H88.5711V127.354H83.1761V135.167H84.0731C86.2961 135.167 87.7131 135.102 89.4031 134.803L89.2861 133.932C87.7001 134.218 86.3481 134.296 84.2421 134.296V131.501ZM91.1841 126.288V130.695H88.7791V131.579H91.1841V137.975H92.2501V126.288H91.1841ZM94.8881 139.47C96.0581 138.976 96.7861 138.001 96.7861 136.753C96.7861 135.882 96.4091 135.349 95.7851 135.349C95.3041 135.349 94.8881 135.674 94.8881 136.181C94.8881 136.727 95.3041 137.013 95.7591 137.013C95.8111 137.013 95.8501 137.013 95.9021 137C95.9021 137.767 95.4211 138.404 94.6021 138.768L94.8881 139.47ZM101.582 137H106.808V136.012H104.897V127.458H103.987C103.467 127.77 102.856 127.991 102.011 128.147V128.901H103.701V136.012H101.582V137ZM108.793 137H114.019V136.012H112.108V127.458H111.198C110.678 127.77 110.067 127.991 109.222 128.147V128.901H110.912V136.012H108.793V137ZM115.991 127.809V128.68H119.488C119.332 131.098 118.227 133.204 115.549 134.699L116.173 135.466C119.488 133.594 120.541 130.812 120.541 127.809H115.991ZM124.415 126.301V130.994H122.829V126.613H121.828V137.377H122.829V131.865H124.415V137.962H125.442V126.301H124.415ZM139.984 126.314H138.918V134.842H139.984V126.314ZM137.54 132.333C135.824 131.761 134.615 130.344 134.615 128.771V128.134H137.254V127.276H130.858V128.134H133.523V128.771C133.523 130.435 132.34 131.956 130.572 132.567L131.131 133.399C132.509 132.905 133.588 131.852 134.082 130.526C134.615 131.748 135.681 132.71 137.02 133.178L137.54 132.333ZM133.549 136.831V134.036H132.483V137.702H140.335V136.831H133.549ZM146.379 133.438H149.044V135.648H146.379V133.438ZM150.097 135.648V133.438H151.917V132.567H144.741V130.695H151.644V127.159H143.662V128.03H150.604V129.837H143.688V133.438H145.326V135.648H142.362V136.519H152.957V135.648H150.097ZM160.418 132.84C160.743 130.669 160.743 129.148 160.743 128.212V127.575H154.854V128.446H159.703C159.703 129.382 159.677 130.799 159.352 132.736L160.418 132.84ZM157.74 130.903H156.687V134.491C155.816 134.517 154.958 134.53 154.217 134.53L154.334 135.414C156.401 135.414 159.144 135.362 161.562 134.972L161.497 134.192C160.314 134.335 159.014 134.413 157.74 134.465V130.903ZM165.137 131.176H163.278V126.301H162.212V137.962H163.278V132.073H165.137V131.176ZM169.655 137H174.881V136.012H172.97V127.458H172.06C171.54 127.77 170.929 127.991 170.084 128.147V128.901H171.774V136.012H169.655V137ZM176.294 137H182.287V135.973H179.648C179.167 135.973 178.582 136.025 178.088 136.064C180.324 133.945 181.819 132.008 181.819 130.11C181.819 128.407 180.753 127.289 179.05 127.289C177.841 127.289 177.022 127.848 176.242 128.693L176.931 129.369C177.451 128.745 178.127 128.264 178.907 128.264C180.09 128.264 180.662 129.057 180.662 130.149C180.662 131.787 179.284 133.685 176.294 136.298V137ZM186.547 137.169C188.354 137.169 189.511 135.518 189.511 132.203C189.511 128.901 188.354 127.289 186.547 127.289C184.727 127.289 183.57 128.888 183.57 132.203C183.57 135.518 184.727 137.169 186.547 137.169ZM186.547 136.22C185.455 136.22 184.727 135.011 184.727 132.203C184.727 129.421 185.455 128.238 186.547 128.238C187.626 128.238 188.354 129.421 188.354 132.203C188.354 135.011 187.626 136.22 186.547 136.22ZM196.722 132.593C196.8 132.19 196.852 131.748 196.852 131.267C196.852 130.734 196.787 130.24 196.683 129.785H199.374V132.593H196.722ZM193.953 134.387C192.835 134.387 192.055 133.165 192.055 131.267C192.055 129.382 192.835 128.16 193.953 128.16C195.058 128.16 195.851 129.382 195.851 131.267C195.851 133.165 195.058 134.387 193.953 134.387ZM199.374 126.301V128.914H196.384C195.89 127.822 195.032 127.198 193.953 127.198C192.25 127.198 191.041 128.784 191.041 131.267C191.041 133.75 192.25 135.336 193.953 135.336C195.071 135.336 195.981 134.647 196.462 133.464H199.374V137.988H200.44V126.301H199.374ZM210.509 131.514H207.285V128.043H210.509V131.514ZM214.227 129.057V130.5H211.549V129.057H214.227ZM211.549 131.358H214.227V133.204H215.306V126.314H214.227V128.199H211.549V127.185H206.232V132.359H211.549V131.358ZM211.445 137.117C209.703 137.117 208.637 136.61 208.637 135.752C208.637 134.894 209.703 134.387 211.445 134.387C213.213 134.387 214.279 134.894 214.279 135.752C214.279 136.61 213.213 137.117 211.445 137.117ZM211.445 133.555C209.053 133.555 207.571 134.348 207.571 135.752C207.571 137.143 209.053 137.949 211.445 137.949C213.85 137.949 215.345 137.143 215.345 135.752C215.345 134.348 213.85 133.555 211.445 133.555ZM221.441 127.159C219.634 127.159 218.321 128.264 218.321 129.902C218.321 131.527 219.634 132.645 221.441 132.645C223.261 132.645 224.561 131.527 224.561 129.902C224.561 128.264 223.261 127.159 221.441 127.159ZM221.441 128.069C222.65 128.069 223.521 128.81 223.521 129.902C223.521 130.981 222.65 131.735 221.441 131.735C220.245 131.735 219.361 130.981 219.361 129.902C219.361 128.81 220.245 128.069 221.441 128.069ZM226.095 126.301V137.988H227.161V126.301H226.095ZM217.866 135.427C219.972 135.427 222.793 135.401 225.419 134.92L225.328 134.127C222.78 134.517 219.855 134.53 217.736 134.53L217.866 135.427ZM236.307 127.159C234.5 127.159 233.187 128.264 233.187 129.902C233.187 131.527 234.5 132.645 236.307 132.645C238.127 132.645 239.427 131.527 239.427 129.902C239.427 128.264 238.127 127.159 236.307 127.159ZM236.307 128.069C237.516 128.069 238.387 128.81 238.387 129.902C238.387 130.981 237.516 131.735 236.307 131.735C235.111 131.735 234.227 130.981 234.227 129.902C234.227 128.81 235.111 128.069 236.307 128.069ZM240.961 126.301V137.988H242.027V126.301H240.961ZM232.732 135.427C234.838 135.427 237.659 135.401 240.285 134.92L240.194 134.127C237.646 134.517 234.721 134.53 232.602 134.53L232.732 135.427ZM250.567 132.84C250.892 130.669 250.892 129.148 250.892 128.212V127.575H245.003V128.446H249.852C249.852 129.382 249.826 130.799 249.501 132.736L250.567 132.84ZM247.889 130.903H246.836V134.491C245.965 134.517 245.107 134.53 244.366 134.53L244.483 135.414C246.55 135.414 249.293 135.362 251.711 134.972L251.646 134.192C250.463 134.335 249.163 134.413 247.889 134.465V130.903ZM255.286 131.176H253.427V126.301H252.361V137.962H253.427V132.073H255.286V131.176ZM257.911 128.589H261.2V127.718H256.858V135.089H257.625C259.367 135.089 260.55 135.037 261.941 134.738L261.85 133.854C260.576 134.127 259.471 134.192 257.911 134.205V128.589ZM265.321 126.301V130.981H263.67V126.561H262.669V137.377H263.67V131.852H265.321V137.962H266.348V126.301H265.321ZM275.317 127.536H272.405V126.236H271.339V127.536H268.44V128.394H275.317V127.536ZM270.104 131.098C270.104 130.331 270.806 129.824 271.872 129.824C272.938 129.824 273.653 130.331 273.653 131.098C273.653 131.878 272.938 132.385 271.872 132.385C270.806 132.385 270.104 131.878 270.104 131.098ZM274.667 131.098C274.667 129.824 273.536 128.992 271.872 128.992C270.221 128.992 269.09 129.824 269.09 131.098C269.09 132.385 270.221 133.204 271.872 133.204C273.536 133.204 274.667 132.385 274.667 131.098ZM269.883 135.102H276.383V137.975H277.449V134.231H269.883V135.102ZM279.178 129.525H277.449V126.314H276.383V133.594H277.449V130.409H279.178V129.525ZM288.519 127.627C290.3 127.627 291.509 128.277 291.509 129.304C291.509 130.331 290.3 130.994 288.519 130.994C286.751 130.994 285.542 130.331 285.542 129.304C285.542 128.277 286.751 127.627 288.519 127.627ZM288.519 131.852C290.95 131.852 292.601 130.864 292.601 129.304C292.601 127.744 290.95 126.769 288.519 126.769C286.101 126.769 284.45 127.744 284.45 129.304C284.45 130.864 286.101 131.852 288.519 131.852ZM293.823 132.944H283.267V133.815H285.984V137.962H287.063V133.815H289.988V137.962H291.067V133.815H293.823V132.944ZM300.036 131.514H296.812V128.043H300.036V131.514ZM303.754 129.057V130.5H301.076V129.057H303.754ZM301.076 131.358H303.754V133.204H304.833V126.314H303.754V128.199H301.076V127.185H295.759V132.359H301.076V131.358ZM300.972 137.117C299.23 137.117 298.164 136.61 298.164 135.752C298.164 134.894 299.23 134.387 300.972 134.387C302.74 134.387 303.806 134.894 303.806 135.752C303.806 136.61 302.74 137.117 300.972 137.117ZM300.972 133.555C298.58 133.555 297.098 134.348 297.098 135.752C297.098 137.143 298.58 137.949 300.972 137.949C303.377 137.949 304.872 137.143 304.872 135.752C304.872 134.348 303.377 133.555 300.972 133.555ZM318.334 128.758C318.334 130.201 318.334 131.735 317.931 133.815L318.984 133.945C319.4 131.761 319.4 130.24 319.4 128.758V127.471H311.184V128.342H318.334V128.758ZM316.618 135.453V131.592H315.565V135.453H313.732V131.592H312.679V135.453H310.092V136.324H320.635V135.453H316.618ZM332.087 130.747C329.968 130.435 327.888 128.992 327.888 127.367V126.717H326.77V127.367C326.77 129.031 324.716 130.435 322.597 130.747L323.026 131.605C324.846 131.293 326.601 130.292 327.329 128.875C328.083 130.279 329.838 131.293 331.645 131.605L332.087 130.747ZM332.594 132.866H322.064V133.75H326.77V137.975H327.836V133.75H332.607L332.594 132.866ZM343.578 126.314H342.512V134.842H343.578V126.314ZM341.134 132.333C339.418 131.761 338.209 130.344 338.209 128.771V128.134H340.848V127.276H334.452V128.134H337.117V128.771C337.117 130.435 335.934 131.956 334.166 132.567L334.725 133.399C336.103 132.905 337.182 131.852 337.676 130.526C338.209 131.748 339.275 132.71 340.614 133.178L341.134 132.333ZM337.143 136.831V134.036H336.077V137.702H343.929V136.831H337.143ZM354.445 126.301V137.988H355.511V126.301H354.445ZM349.362 127.198C347.633 127.198 346.398 128.784 346.398 131.267C346.398 133.75 347.633 135.336 349.362 135.336C351.091 135.336 352.326 133.75 352.326 131.267C352.326 128.784 351.091 127.198 349.362 127.198ZM349.362 128.16C350.493 128.16 351.299 129.382 351.299 131.267C351.299 133.165 350.493 134.387 349.362 134.387C348.218 134.387 347.412 133.165 347.412 131.267C347.412 129.382 348.218 128.16 349.362 128.16ZM367.959 131.995C366.243 131.423 365.034 130.006 365.034 128.446V127.978H367.673V127.12H361.277V127.978H363.942V128.446C363.942 130.084 362.759 131.605 360.991 132.229L361.55 133.061C362.928 132.554 364.007 131.514 364.501 130.188C365.034 131.41 366.1 132.372 367.439 132.84L367.959 131.995ZM362.603 134.829H369.337V137.962H370.403V133.971H362.603V134.829ZM369.337 126.301V133.36H370.403V126.301H369.337ZM31.566 150.722C29.876 150.124 28.732 148.668 28.732 147.173V146.874H31.293V146.003H25.066V146.874H27.666V147.173C27.666 148.837 26.457 150.384 24.728 150.995L25.287 151.84C26.652 151.32 27.718 150.267 28.212 148.928C28.732 150.124 29.733 151.086 31.033 151.567L31.566 150.722ZM33.23 155.935H27.874V154.466H33.23V155.935ZM33.23 153.634H27.874V152.191H26.821V156.806H34.283V152.191H33.23V153.634ZM33.217 145.314V148.135H30.916V149.006H33.217V151.632H34.283V145.314H33.217ZM46.216 145.314H45.15V153.842H46.216V145.314ZM43.772 151.333C42.056 150.761 40.847 149.344 40.847 147.771V147.134H43.486V146.276H37.09V147.134H39.755V147.771C39.755 149.435 38.572 150.956 36.804 151.567L37.363 152.399C38.741 151.905 39.82 150.852 40.314 149.526C40.847 150.748 41.913 151.71 43.252 152.178L43.772 151.333ZM39.781 155.831V153.036H38.715V156.702H46.567V155.831H39.781ZM52.611 152.438H55.276V154.648H52.611V152.438ZM56.329 154.648V152.438H58.149V151.567H50.973V149.695H57.876V146.159H49.894V147.03H56.836V148.837H49.92V152.438H51.558V154.648H48.594V155.519H59.189V154.648H56.329ZM70.3892 146.497H67.4772V145.184H66.4112V146.497H63.5122V147.355H70.3892V146.497ZM65.1762 149.942C65.1762 149.188 65.8782 148.707 66.9442 148.707C68.0102 148.707 68.7252 149.188 68.7252 149.942C68.7252 150.709 68.0102 151.177 66.9442 151.177C65.8782 151.177 65.1762 150.709 65.1762 149.942ZM69.7392 149.942C69.7392 148.707 68.6082 147.914 66.9442 147.914C65.2802 147.914 64.1622 148.707 64.1622 149.942C64.1622 151.19 65.2802 151.983 66.9442 151.983C68.6082 151.983 69.7392 151.19 69.7392 149.942ZM71.4682 155.948H66.2422V154.661H71.4682V155.948ZM71.4682 153.829H66.2422V152.594H65.1892V156.806H72.5212V152.594H71.4682V153.829ZM74.2502 148.265H72.5212V145.301H71.4552V152.074H72.5212V149.162H74.2502V148.265ZM77.2262 146.432H76.1602V153.946H77.1222C78.9812 153.946 80.8142 153.816 82.8422 153.4L82.7252 152.49C80.7882 152.88 78.9812 153.036 77.2262 153.036V146.432ZM83.9212 145.301V156.949H84.9872V145.301H83.9212ZM88.9511 147.303H93.3061V146.419H87.8851V154.076H88.8081C91.0051 154.076 92.5391 153.998 94.3201 153.66L94.2031 152.776C92.5131 153.075 91.0181 153.166 88.9511 153.166V147.303ZM98.2851 149.903H96.3611V145.301H95.2951V156.988H96.3611V150.787H98.2851V149.903ZM100.468 156.169C100.936 156.169 101.326 155.805 101.326 155.272C101.326 154.726 100.936 154.349 100.468 154.349C100 154.349 99.6101 154.726 99.6101 155.272C99.6101 155.805 100 156.169 100.468 156.169ZM103.878 151.853C105.269 151.411 106.348 150.488 106.855 149.266C107.388 150.423 108.454 151.307 109.832 151.723L110.326 150.904C108.623 150.397 107.401 149.162 107.375 147.68H110.066V146.822H107.375V145.379H106.309V146.822H103.657V147.68H106.309C106.283 149.214 105.1 150.501 103.384 151.021L103.878 151.853ZM107.375 151.463H106.309V153.634C105.126 153.673 103.995 153.673 103.033 153.673L103.176 154.57C105.256 154.557 108.116 154.544 110.729 154.063L110.638 153.27C109.598 153.439 108.467 153.517 107.375 153.582V151.463ZM111.405 145.301V156.975H112.471V145.301H111.405ZM121.804 150.995C120.114 150.397 118.97 148.928 118.97 147.433V146.965H121.531V146.094H115.304V146.965H117.904V147.433C117.904 149.084 116.695 150.644 114.966 151.255L115.525 152.1C116.89 151.593 117.956 150.527 118.45 149.188C118.97 150.397 119.971 151.359 121.271 151.827L121.804 150.995ZM116.734 153.777H123.455V156.975H124.534V152.919H116.734V153.777ZM123.455 145.301V148.343H121.18V149.214H123.455V152.282H124.534V145.301H123.455ZM130.669 146.159C128.862 146.159 127.549 147.264 127.549 148.902C127.549 150.527 128.862 151.645 130.669 151.645C132.489 151.645 133.789 150.527 133.789 148.902C133.789 147.264 132.489 146.159 130.669 146.159ZM130.669 147.069C131.878 147.069 132.749 147.81 132.749 148.902C132.749 149.981 131.878 150.735 130.669 150.735C129.473 150.735 128.589 149.981 128.589 148.902C128.589 147.81 129.473 147.069 130.669 147.069ZM135.323 145.301V156.988H136.389V145.301H135.323ZM127.094 154.427C129.2 154.427 132.021 154.401 134.647 153.92L134.556 153.127C132.008 153.517 129.083 153.53 126.964 153.53L127.094 154.427ZM145.535 146.159C143.728 146.159 142.415 147.264 142.415 148.902C142.415 150.527 143.728 151.645 145.535 151.645C147.355 151.645 148.655 150.527 148.655 148.902C148.655 147.264 147.355 146.159 145.535 146.159ZM145.535 147.069C146.744 147.069 147.615 147.81 147.615 148.902C147.615 149.981 146.744 150.735 145.535 150.735C144.339 150.735 143.455 149.981 143.455 148.902C143.455 147.81 144.339 147.069 145.535 147.069ZM150.189 145.301V156.988H151.255V145.301H150.189ZM141.96 154.427C144.066 154.427 146.887 154.401 149.513 153.92L149.422 153.127C146.874 153.517 143.949 153.53 141.83 153.53L141.96 154.427ZM157.715 152.438H160.38V154.648H157.715V152.438ZM161.433 154.648V152.438H163.253V151.567H156.077V149.695H162.98V146.159H154.998V147.03H161.94V148.837H155.024V152.438H156.662V154.648H153.698V155.519H164.293V154.648H161.433ZM169.752 146.302H168.686V148.395C168.686 150.553 167.36 152.802 165.67 153.647L166.32 154.492C167.633 153.79 168.712 152.321 169.219 150.592C169.752 152.23 170.818 153.621 172.144 154.284L172.768 153.439C171.078 152.633 169.752 150.514 169.752 148.395V146.302ZM174.211 145.301V149.253H171.507V150.124H174.211V156.975H175.277V145.301H174.211ZM186.105 145.301V156.975H187.171V145.301H186.105ZM178.292 146.289V154.154H183.778V146.289H182.725V149.37H179.345V146.289H178.292ZM179.345 150.215H182.725V153.283H179.345V150.215ZM199.637 151.164C197.596 150.774 195.386 149.006 195.386 147.017V146.12H194.268V147.017C194.268 149.006 192.071 150.761 190.03 151.164L190.511 152.048C192.266 151.632 194.086 150.384 194.827 148.681C195.568 150.397 197.388 151.645 199.156 152.048L199.637 151.164ZM189.588 154.518V155.402H200.157V154.518H189.588ZM209.711 147.342H202.899V149.838H210.972V149.071H203.952V148.07H210.764V145.639H202.873V146.393H209.711V147.342ZM203.887 154.96H210.803V152.477H202.808V153.244H209.75V154.219H202.834V156.806H211.167V156.039H203.887V154.96ZM201.547 150.722V151.528H212.116V150.722H201.547ZM219.833 147.537H221.913V146.666H216.596V147.537H218.806V148.59C218.806 150.735 217.896 152.854 216.271 153.829L216.921 154.622C218.078 153.894 218.923 152.529 219.326 150.93C219.729 152.412 220.535 153.66 221.666 154.336L222.316 153.556C220.704 152.646 219.833 150.618 219.833 148.59V147.537ZM222.953 149.487H221.029V150.358H222.953V156.351H223.967V145.561H222.953V149.487ZM225.293 145.288V156.949H226.32V145.288H225.293ZM236.524 146.887C236.524 147.797 236.524 148.655 236.212 149.851L237.252 149.968C237.577 148.772 237.577 147.823 237.577 146.887V145.899H229.634V146.757H236.524V146.887ZM233.599 156.117C231.779 156.117 230.609 155.623 230.609 154.817C230.609 153.985 231.779 153.491 233.599 153.491C235.432 153.491 236.602 153.985 236.602 154.817C236.602 155.623 235.432 156.117 233.599 156.117ZM233.599 152.672C231.116 152.672 229.543 153.465 229.543 154.817C229.543 156.143 231.116 156.949 233.599 156.949C236.082 156.949 237.668 156.143 237.668 154.817C237.668 153.465 236.082 152.672 233.599 152.672ZM233.768 150.735V148.499H232.702V150.735H228.399V151.593H238.89V150.735H233.768ZM243.218 153.374C242.308 153.374 241.671 152.633 241.671 151.593C241.671 150.579 242.308 149.838 243.218 149.838C244.115 149.838 244.765 150.579 244.765 151.593C244.765 152.633 244.115 153.374 243.218 153.374ZM243.218 148.941C241.775 148.941 240.722 150.033 240.722 151.593C240.722 153.179 241.775 154.258 243.218 154.258C244.661 154.258 245.714 153.179 245.714 151.593C245.714 150.033 244.661 148.941 243.218 148.941ZM243.738 145.639H242.685V147.29H240.319V148.161H246.104V147.29H243.738V145.639ZM249.185 145.288V150.215H247.69V145.561H246.689V156.39H247.69V151.086H249.185V156.949H250.212V145.288H249.185ZM261.638 150.891H254.683V147.251H261.521V146.367H253.63V151.762H261.638V150.891ZM252.278 154.505V155.389H262.86V154.505H252.278ZM271.335 150.228C269.489 150.527 267.968 150.592 265.901 150.592V149.019H270.126V145.873H264.822V146.731H269.073V148.2H264.861V151.463H265.797C267.955 151.463 269.541 151.398 271.452 151.086L271.335 150.228ZM272.765 155.935H267.318V154.505H272.765V155.935ZM272.765 153.673H267.318V152.295H266.265V156.806H273.818V152.295H272.765V153.673ZM272.752 145.314V151.71H273.818V145.314H272.752ZM278.003 146.432H276.937V153.946H277.899C279.758 153.946 281.591 153.816 283.619 153.4L283.502 152.49C281.565 152.88 279.758 153.036 278.003 153.036V146.432ZM284.698 145.301V156.949H285.764V145.301H284.698ZM289.728 147.303H294.083V146.419H288.662V154.076H289.585C291.782 154.076 293.316 153.998 295.097 153.66L294.98 152.776C293.29 153.075 291.795 153.166 289.728 153.166V147.303ZM299.062 149.903H297.138V145.301H296.072V156.988H297.138V150.787H299.062V149.903ZM301.245 156.169C301.713 156.169 302.103 155.805 302.103 155.272C302.103 154.726 301.713 154.349 301.245 154.349C300.777 154.349 300.387 154.726 300.387 155.272C300.387 155.805 300.777 156.169 301.245 156.169Z" fill="#404040"/>
<line x1="24" y1="115.5" x2="384" y2="115.5" stroke="#E8EBEE"/>
<path d="M118.353 90C110.978 90 105 96.0095 105 103.403C105 110.634 110.686 116.53 117.85 116.79C118.012 116.807 118.175 116.807 118.353 116.807C119.361 116.807 120.368 116.676 121.326 116.481L120.579 110.683L119.945 105.781L123.844 108.664L128.507 112.133C129.27 111.253 129.904 110.26 130.407 109.217C131.268 107.442 131.739 105.488 131.739 103.403C131.723 96.0095 125.745 90 118.353 90Z" fill="#FF6652" fill-opacity="0.4"/>
<path d="M125.956 103.403C125.956 104.185 125.826 104.95 125.615 105.651C125.258 106.807 124.656 107.833 123.844 108.68L119.945 105.781L120.579 110.683C119.88 110.895 119.133 111.009 118.37 111.009C117.931 111.009 117.509 110.976 117.103 110.879C113.529 110.276 110.783 107.149 110.783 103.387C110.783 99.169 114.195 95.7815 118.37 95.7815C122.561 95.7978 125.956 99.1853 125.956 103.403Z" fill="#FF6652"/>
<path d="M144.394 154.72C142.818 154.72 141.291 153.922 140.446 152.489L134.647 142.669L126.752 151.284C126.021 152.082 124.949 152.359 123.925 152.033C122.918 151.708 122.203 150.861 122.073 149.818L116.192 104.299C116.063 103.224 116.566 102.182 117.492 101.645C118.434 101.091 119.62 101.156 120.497 101.807L157.845 129.559C158.706 130.194 159.096 131.252 158.868 132.295C158.641 133.337 157.812 134.135 156.773 134.363L145.271 136.724L151.006 146.447C151.623 147.489 151.785 148.695 151.477 149.867C151.168 151.04 150.405 152.017 149.332 152.62L146.652 154.134C145.937 154.525 145.174 154.72 144.394 154.72Z" fill="white"/>
<path d="M144.394 154.72C142.818 154.72 141.291 153.922 140.446 152.489L134.647 142.669L126.752 151.284C126.021 152.082 124.949 152.359 123.925 152.033C122.918 151.708 122.203 150.861 122.073 149.818L116.192 104.299C116.063 103.224 116.566 102.182 117.492 101.645C118.434 101.091 119.62 101.156 120.497 101.807L157.845 129.559C158.706 130.194 159.096 131.252 158.868 132.295C158.641 133.337 157.812 134.135 156.773 134.363L145.271 136.724L151.006 146.447C151.623 147.489 151.785 148.695 151.477 149.867C151.168 151.04 150.405 152.017 149.332 152.62L146.652 154.134C145.937 154.525 145.174 154.72 144.394 154.72ZM135.28 136.724L143.517 150.682C143.793 151.138 144.426 151.3 144.897 151.024L147.594 149.509C147.822 149.379 147.984 149.183 148.049 148.939C148.098 148.776 148.114 148.532 147.952 148.271L139.667 134.233L154.141 131.252L119.994 105.879L125.387 147.538L135.28 136.724Z" fill="#FF4D36"/>
</svg>
