<svg width="408" height="171" viewBox="0 0 408 171" fill="none" xmlns="http://www.w3.org/2000/svg">
<rect x="0.5" y="0.5" width="407" height="154" rx="7.5" fill="white" stroke="#E8EBEE"/>
<path d="M360.38 111C353.542 111 348 116.571 348 123.426C348 130.129 353.271 135.595 359.913 135.836C360.063 135.852 360.214 135.852 360.38 135.852C361.313 135.852 362.247 135.731 363.136 135.55L362.443 130.175L361.855 125.63L365.47 128.302L369.792 131.518C370.5 130.703 371.087 129.782 371.554 128.816C372.352 127.17 372.789 125.358 372.789 123.426C372.774 116.571 367.232 111 360.38 111Z" fill="#FF6652" fill-opacity="0.4"/>
<path d="M367.428 123.426C367.428 124.15 367.307 124.86 367.111 125.509C366.78 126.581 366.223 127.532 365.47 128.317L361.855 125.63L362.443 130.175C361.795 130.371 361.102 130.476 360.395 130.476C359.988 130.476 359.596 130.446 359.22 130.356C355.907 129.797 353.361 126.898 353.361 123.411C353.361 119.5 356.524 116.36 360.395 116.36C364.28 116.375 367.428 119.515 367.428 123.426Z" fill="#FF6652"/>
<path d="M384.521 171C383.06 171 381.644 170.26 380.861 168.932L375.485 159.827L368.165 167.814C367.488 168.554 366.494 168.811 365.545 168.509C364.611 168.207 363.948 167.422 363.828 166.456L358.376 124.256C358.256 123.26 358.723 122.293 359.581 121.795C360.454 121.282 361.554 121.342 362.367 121.946L396.991 147.673C397.789 148.262 398.15 149.244 397.939 150.21C397.729 151.176 396.96 151.916 395.997 152.127L385.334 154.317L390.65 163.33C391.223 164.296 391.373 165.414 391.087 166.501C390.801 167.588 390.093 168.494 389.099 169.052L386.614 170.457C385.951 170.819 385.244 171 384.521 171Z" fill="white"/>
<path d="M384.521 171C383.06 171 381.644 170.26 380.861 168.932L375.485 159.827L368.165 167.814C367.488 168.554 366.494 168.811 365.545 168.509C364.611 168.207 363.948 167.422 363.828 166.456L358.376 124.256C358.256 123.26 358.723 122.293 359.581 121.795C360.454 121.282 361.554 121.342 362.367 121.946L396.991 147.673C397.789 148.262 398.15 149.244 397.939 150.21C397.729 151.176 396.96 151.916 395.997 152.127L385.334 154.317L390.65 163.33C391.223 164.296 391.373 165.414 391.087 166.501C390.801 167.588 390.093 168.494 389.099 169.052L386.614 170.457C385.951 170.819 385.244 171 384.521 171ZM376.072 154.317L383.707 167.256C383.963 167.678 384.551 167.829 384.988 167.573L387.488 166.169C387.698 166.048 387.849 165.867 387.909 165.64C387.954 165.489 387.97 165.263 387.819 165.021L380.138 152.007L393.557 149.244L361.9 125.721L366.9 164.342L376.072 154.317Z" fill="#FF4D36"/>
<path d="M27.635 121.85V123.605H24.53V121.85H27.635ZM23.315 124.82H19.685V122.615H23.315V124.82ZM24.53 124.61H27.635V126.815H28.88V118.67H27.635V120.86H24.53V119.495H23.315V121.64H19.685V119.495H18.47V125.81H24.53V124.61ZM24.425 131.135C22.415 131.135 21.185 130.565 21.185 129.59C21.185 128.615 22.415 128.03 24.425 128.03C26.465 128.03 27.695 128.615 27.695 129.59C27.695 130.565 26.465 131.135 24.425 131.135ZM24.425 127.085C21.665 127.085 19.955 128 19.955 129.59C19.955 131.18 21.665 132.095 24.425 132.095C27.2 132.095 28.925 131.18 28.925 129.59C28.925 128 27.2 127.085 24.425 127.085ZM38.6438 126.605V127.52H41.3738V128.9H42.6038V118.655H41.3738V126.605H38.6438ZM35.8988 120.11C37.1738 120.11 38.0438 120.68 38.0438 121.535C38.0438 122.405 37.1738 122.975 35.8988 122.975C34.6238 122.975 33.7538 122.405 33.7538 121.535C33.7538 120.68 34.6238 120.11 35.8988 120.11ZM35.8988 123.89C37.8638 123.89 39.2138 122.975 39.2138 121.535C39.2138 120.125 37.8638 119.195 35.8988 119.195C33.9338 119.195 32.5838 120.125 32.5838 121.535C32.5838 122.975 33.9338 123.89 35.8988 123.89ZM35.4188 128.42H36.6488V125.765C37.8638 125.69 39.1088 125.555 40.2938 125.375L40.1888 124.49C37.3388 124.85 34.0088 124.88 31.5188 124.88L31.6838 125.9C32.7938 125.9 34.0838 125.885 35.4188 125.825V128.42ZM34.6688 130.805V127.895H33.4388V131.81H42.9488V130.805H34.6688ZM57.0027 125.225C54.6477 124.805 52.0827 122.825 52.0827 120.59V119.555H50.7927V120.59C50.7927 122.825 48.2427 124.805 45.8877 125.225L46.3977 126.245C48.4677 125.81 50.5677 124.415 51.4377 122.495C52.3077 124.415 54.4227 125.81 56.4777 126.245L57.0027 125.225ZM52.0527 129.35V126.08H50.8227V129.35H45.3927V130.355H57.6027V129.35H52.0527ZM59.7015 120.395V121.4H63.7365C63.5565 124.19 62.2815 126.62 59.1915 128.345L59.9115 129.23C63.7365 127.07 64.9515 123.86 64.9515 120.395H59.7015ZM69.4215 118.655V124.07H67.5915V119.015H66.4365V131.435H67.5915V125.075H69.4215V132.11H70.6065V118.655H69.4215Z" fill="#222222"/>
<path d="M86.545 133.185H87.505V116.43H86.545V133.185Z" fill="#222222"/>
<path d="M171.545 133.185H172.505V116.43H171.545V133.185Z" fill="#222222"/>
<path d="M273.545 133.185H274.505V116.43H273.545V133.185Z" fill="#222222"/>
<path d="M375.545 133.185H376.505V116.43H375.545V133.185Z" fill="#222222"/>
<path d="M112.575 118.655V132.14H113.805V118.655H112.575ZM106.71 119.69C104.715 119.69 103.29 121.52 103.29 124.385C103.29 127.25 104.715 129.08 106.71 129.08C108.705 129.08 110.13 127.25 110.13 124.385C110.13 121.52 108.705 119.69 106.71 119.69ZM106.71 120.8C108.015 120.8 108.945 122.21 108.945 124.385C108.945 126.575 108.015 127.985 106.71 127.985C105.39 127.985 104.46 126.575 104.46 124.385C104.46 122.21 105.39 120.8 106.71 120.8ZM122.669 131.15C120.554 131.15 119.309 130.625 119.309 129.71C119.309 128.795 120.554 128.27 122.669 128.27C124.769 128.27 126.029 128.795 126.029 129.71C126.029 130.625 124.769 131.15 122.669 131.15ZM122.669 127.31C119.789 127.31 118.064 128.165 118.064 129.71C118.064 131.255 119.789 132.095 122.669 132.095C125.564 132.095 127.274 131.255 127.274 129.71C127.274 128.165 125.564 127.31 122.669 127.31ZM120.809 123.74C121.364 123.83 121.994 123.89 122.669 123.89C123.359 123.89 123.989 123.83 124.544 123.74V125.315H120.809V123.74ZM119.204 121.4C119.204 120.425 120.524 119.855 122.669 119.855C124.814 119.855 126.134 120.425 126.134 121.4C126.134 122.36 124.814 122.945 122.669 122.945C120.524 122.945 119.204 122.36 119.204 121.4ZM125.759 125.315V123.41C126.794 122.99 127.394 122.3 127.394 121.4C127.394 119.825 125.594 118.895 122.669 118.895C119.759 118.895 117.944 119.825 117.944 121.4C117.944 122.315 118.529 122.99 119.594 123.425V125.315H116.579V126.305H128.759V125.315H125.759ZM131.848 122.915C131.848 121.595 132.838 120.665 134.158 120.665C135.478 120.665 136.468 121.595 136.468 122.915C136.468 124.235 135.478 125.165 134.158 125.165C132.838 125.165 131.848 124.235 131.848 122.915ZM137.668 122.915C137.668 120.965 136.168 119.6 134.158 119.6C132.148 119.6 130.648 120.965 130.648 122.915C130.648 124.865 132.148 126.23 134.158 126.23C136.168 126.23 137.668 124.865 137.668 122.915ZM133.693 127.55H132.463V131.81H141.433V130.805H133.693V127.55ZM140.833 122.75V118.655H139.603V128.555H140.833V123.77H142.813V122.75H140.833ZM146.081 120.29H144.851V128.615H145.706C147.161 128.615 148.706 128.54 150.521 128.195L150.401 127.13C148.796 127.445 147.371 127.535 146.081 127.55V120.29ZM154.421 118.655V124.13H152.516V118.955H151.361V131.42H152.516V125.15H154.421V132.095H155.606V118.655H154.421Z" fill="#222222"/>
<path d="M192.16 119.645C190.075 119.645 188.56 120.92 188.56 122.81C188.56 124.685 190.075 125.975 192.16 125.975C194.26 125.975 195.76 124.685 195.76 122.81C195.76 120.92 194.26 119.645 192.16 119.645ZM192.16 120.695C193.555 120.695 194.56 121.55 194.56 122.81C194.56 124.055 193.555 124.925 192.16 124.925C190.78 124.925 189.76 124.055 189.76 122.81C189.76 121.55 190.78 120.695 192.16 120.695ZM197.53 118.655V132.14H198.76V118.655H197.53ZM188.035 129.185C190.465 129.185 193.72 129.155 196.75 128.6L196.645 127.685C193.705 128.135 190.33 128.15 187.885 128.15L188.035 129.185ZM206.214 126.89H209.289V129.44H206.214V126.89ZM210.504 129.44V126.89H212.604V125.885H204.324V123.725H212.289V119.645H203.079V120.65H211.089V122.735H203.109V126.89H204.999V129.44H201.579V130.445H213.804V129.44H210.504ZM226.433 118.67H225.203V128.51H226.433V118.67ZM223.613 125.615C221.633 124.955 220.238 123.32 220.238 121.505V120.77H223.283V119.78H215.903V120.77H218.978V121.505C218.978 123.425 217.613 125.18 215.573 125.885L216.218 126.845C217.808 126.275 219.053 125.06 219.623 123.53C220.238 124.94 221.468 126.05 223.013 126.59L223.613 125.615ZM219.008 130.805V127.58H217.778V131.81H226.838V130.805H219.008ZM244.156 125.225C241.801 124.805 239.236 122.825 239.236 120.59V119.555H237.946V120.59C237.946 122.825 235.396 124.805 233.041 125.225L233.551 126.245C235.621 125.81 237.721 124.415 238.591 122.495C239.461 124.415 241.576 125.81 243.631 126.245L244.156 125.225ZM239.206 129.35V126.08H237.976V129.35H232.546V130.355H244.756V129.35H239.206ZM246.855 120.395V121.4H250.89C250.71 124.19 249.435 126.62 246.345 128.345L247.065 129.23C250.89 127.07 252.105 123.86 252.105 120.395H246.855ZM256.575 118.655V124.07H254.745V119.015H253.59V131.435H254.745V125.075H256.575V132.11H257.76V118.655H256.575Z" fill="#222222"/>
<path d="M290.845 124.325C293.455 124.085 295.15 123.125 295.885 121.805C296.605 123.125 298.315 124.085 300.91 124.325L301.6 122.78C298.975 122.555 297.625 121.64 297.31 120.695H301V119.12H290.785V120.695H294.46C294.145 121.64 292.795 122.555 290.185 122.78L290.845 124.325ZM295.855 130.775C294.01 130.775 293.065 130.445 293.065 129.725C293.065 129.005 294.01 128.69 295.855 128.69C297.7 128.69 298.645 129.005 298.645 129.725C298.645 130.445 297.7 130.775 295.855 130.775ZM295.855 127.16C292.87 127.16 291.07 128.105 291.07 129.725C291.07 131.36 292.87 132.29 295.855 132.29C298.84 132.29 300.655 131.36 300.655 129.725C300.655 128.105 298.84 127.16 295.855 127.16ZM289.645 124.85V126.41H302.125V124.85H289.645ZM308.589 124.265H305.964V121.04H308.589V124.265ZM313.014 122.045V123.23H310.524V122.045H313.014ZM310.524 124.805H313.014V126.575H314.994V118.475H313.014V120.47H310.524V119.465H304.014V125.825H310.524V124.805ZM310.314 130.775C308.514 130.775 307.569 130.4 307.569 129.605C307.569 128.81 308.514 128.435 310.314 128.435C312.129 128.435 313.074 128.81 313.074 129.605C313.074 130.4 312.129 130.775 310.314 130.775ZM310.314 126.92C307.389 126.92 305.589 127.91 305.589 129.605C305.589 131.3 307.389 132.29 310.314 132.29C313.254 132.29 315.054 131.3 315.054 129.605C315.054 127.91 313.254 126.92 310.314 126.92ZM322.433 119.54H320.438V121.535C320.438 124.16 319.388 126.845 317.048 127.925L318.278 129.515C319.823 128.735 320.858 127.295 321.458 125.525C322.028 127.19 323.033 128.54 324.548 129.275L325.718 127.7C323.438 126.68 322.433 124.145 322.433 121.535V119.54ZM326.858 118.46V122.795H324.203V124.385H326.858V132.32H328.838V118.46H326.858ZM339.51 123.59H336.795V122.21H339.51V123.59ZM341.46 119.075H339.51V120.725H336.795V119.075H334.845V125.135H341.46V119.075ZM338.175 129.785H345.315V126.035H336.195V127.535H343.365V128.375H336.21V132.185H345.72V130.655H338.175V129.785ZM345.315 121.145V118.475H343.335V125.495H345.315V122.75H347.13V121.145H345.315ZM357.269 130.55H351.689V129.305H357.269V130.55ZM357.269 127.775H351.689V126.335H349.724V132.14H359.249V126.335H357.269V127.775ZM358.979 123.86C359.279 122.315 359.279 121.22 359.279 120.14V119.03H349.784V120.605H357.329C357.329 121.52 357.284 122.555 357.014 123.86H348.239V125.45H360.749V123.86H358.979Z" fill="#222222"/>
<path d="M394.165 123.065C394.165 121.52 395.74 120.515 397.885 120.515C400.03 120.515 401.59 121.52 401.59 123.065C401.59 124.61 400.03 125.615 397.885 125.615C395.74 125.615 394.165 124.61 394.165 123.065ZM398.5 129.365V126.56C401.005 126.38 402.76 125.045 402.76 123.065C402.76 120.92 400.72 119.54 397.885 119.54C395.035 119.54 392.98 120.92 392.98 123.065C392.98 125.045 394.75 126.38 397.255 126.56V129.365H391.78V130.385H404.005V129.365H398.5Z" fill="#222222"/>
<path d="M68.4 98.76L59 82.48L49.6 98.76H68.4ZM51.12 97.88L59 84.24L66.88 97.88H51.12ZM88.4 98.76L79 82.48L69.6 98.76H88.4ZM71.12 97.88L79 84.24L86.88 97.88H71.12ZM108.4 98.76L99 82.48L89.6 98.76H108.4ZM91.12 97.88L99 84.24L106.88 97.88H91.12ZM127.151 87.08V88.76H123.871V87.08H127.151ZM121.291 90.18H117.791V87.9H121.291V90.18ZM123.871 90.86H127.151V93.3H129.791V82.3H127.151V84.98H123.871V83.4H121.291V85.88H117.791V83.42H115.171V92.28H123.871V90.86ZM123.551 98.72C121.151 98.72 119.891 98.22 119.891 97.18C119.891 96.14 121.151 95.64 123.551 95.64C125.971 95.64 127.231 96.14 127.231 97.18C127.231 98.22 125.971 98.72 123.551 98.72ZM123.551 93.64C119.651 93.64 117.251 94.94 117.251 97.18C117.251 99.42 119.651 100.72 123.551 100.72C127.471 100.72 129.871 99.42 129.871 97.18C129.871 94.94 127.471 93.64 123.551 93.64ZM142.19 93V94.8H145.65V96.26H148.29V82.3H145.65V93H142.19ZM138.65 84.84C139.87 84.84 140.73 85.32 140.73 86.22C140.73 87.12 139.87 87.58 138.65 87.58C137.41 87.58 136.55 87.12 136.55 86.22C136.55 85.32 137.41 84.84 138.65 84.84ZM138.65 89.5C141.33 89.5 143.23 88.18 143.23 86.22C143.23 84.26 141.33 82.92 138.65 82.92C135.95 82.92 134.07 84.26 134.07 86.22C134.07 88.18 135.95 89.5 138.65 89.5ZM137.67 98.3V95.78H140.21V92.3C141.69 92.18 143.17 92.02 144.61 91.78L144.43 89.9C140.55 90.4 136.07 90.44 132.71 90.46L133.05 92.56C134.43 92.56 135.97 92.54 137.59 92.46V94.92H135.03V100.4H148.69V98.3H137.67ZM171.499 83.6H165.359V82.16H162.719V83.6H156.519V85.58H171.499V83.6ZM160.239 97.1H167.779V98.56H160.239V97.1ZM157.659 100.5H170.379V95.16H157.659V100.5ZM160.699 88.66C160.699 88.06 161.759 87.82 164.039 87.82C166.339 87.82 167.379 88.06 167.379 88.66C167.379 89.26 166.339 89.52 164.039 89.52C161.759 89.52 160.699 89.26 160.699 88.66ZM165.359 92.16V91.24C168.479 91.06 170.219 90.2 170.219 88.66C170.219 86.92 167.999 86.04 164.039 86.04C160.099 86.04 157.879 86.92 157.879 88.66C157.879 90.2 159.619 91.06 162.719 91.24V92.16H155.699V94.2H172.379V92.16H165.359ZM177.738 86.48H179.098V94.28C178.658 94.32 178.178 94.34 177.738 94.34V86.48ZM181.458 86.48H182.638V84.38H174.258V86.48H175.378V94.4C174.858 94.4 174.378 94.4 173.938 94.4L174.218 96.54C176.498 96.54 180.218 96.48 183.078 95.86L182.898 93.96C182.458 94.02 181.958 94.06 181.458 94.12V86.48ZM183.938 89.02H182.178V91.32H183.938V99.88H186.398V82.68H183.938V89.02ZM187.598 82.3V100.74H190.098V82.3H187.598ZM205.136 82.28V100.76H207.776V82.28H205.136ZM197.876 83.58C195.096 83.58 193.036 86.1 193.036 90.14C193.036 94.2 195.096 96.74 197.876 96.74C200.656 96.74 202.716 94.2 202.716 90.14C202.716 86.1 200.656 83.58 197.876 83.58ZM197.876 85.96C199.236 85.96 200.176 87.42 200.176 90.14C200.176 92.88 199.236 94.34 197.876 94.34C196.516 94.34 195.576 92.88 195.576 90.14C195.576 87.42 196.516 85.96 197.876 85.96ZM218.035 86.24H221.835V84.06H211.515V86.24H215.355V87.26C215.355 90.4 213.855 93.78 210.775 95.16L212.275 97.26C214.435 96.28 215.915 94.26 216.735 91.86C217.555 94.08 219.015 95.88 221.155 96.8L222.595 94.72C219.515 93.44 218.035 90.26 218.035 87.26V86.24ZM223.535 82.3V100.72H226.175V82.3H223.535Z" fill="#00AB91"/>
<rect x="18.3226" y="81.3226" width="21.3548" height="21.3548" rx="10.6774" stroke="#00AB91" stroke-width="2.64516"/>
<path fill-rule="evenodd" clip-rule="evenodd" d="M30.75 90.25V85L27.25 85L27.25 90.25H22V93.75H27.25L27.25 99H30.75V93.75H36V90.25H30.75Z" fill="#00AB91"/>
<path d="M90 48.5C90 42.1487 95.1487 37 101.5 37H408V60H101.5C95.1487 60 90 54.8513 90 48.5Z" fill="#F3F3F3"/>
<path d="M142 0H400C404.418 0 408 3.58172 408 8V32H150C145.582 32 142 28.4183 142 24V0Z" fill="#E8EBEE"/>
<path d="M127 0H146V19H127V0Z" fill="#E8EBEE"/>
<rect x="1" y="1" width="141" height="31" rx="8" fill="white"/>
<path d="M42.0134 20.872L37.0001 12.1893L31.9867 20.872H42.0134ZM32.6694 20.4773L37.0001 12.9787L41.3307 20.4773H32.6694ZM52.6801 20.872L47.6667 12.1893L42.6534 20.872H52.6801ZM43.3361 20.4773L47.6667 12.9787L51.9974 20.4773H43.3361ZM63.3467 20.872L58.3334 12.1893L53.3201 20.872H63.3467ZM54.0027 20.4773L58.3334 12.9787L62.6641 20.4773H54.0027ZM73.6148 14.4933V15.7413H71.4068V14.4933H73.6148ZM70.5428 16.6053H67.9615V15.0373H70.5428V16.6053ZM71.4068 16.456H73.6148V18.024H74.5002V12.232H73.6148V13.7893H71.4068V12.8187H70.5428V14.344H67.9615V12.8187H67.0975V17.3093H71.4068V16.456ZM71.3322 21.096C69.9028 21.096 69.0282 20.6907 69.0282 19.9973C69.0282 19.304 69.9028 18.888 71.3322 18.888C72.7828 18.888 73.6575 19.304 73.6575 19.9973C73.6575 20.6907 72.7828 21.096 71.3322 21.096ZM71.3322 18.216C69.3695 18.216 68.1535 18.8667 68.1535 19.9973C68.1535 21.128 69.3695 21.7787 71.3322 21.7787C73.3055 21.7787 74.5322 21.128 74.5322 19.9973C74.5322 18.8667 73.3055 18.216 71.3322 18.216ZM81.4433 17.8747V18.5253H83.3847V19.5067H84.2593V12.2213H83.3847V17.8747H81.4433ZM79.4913 13.256C80.398 13.256 81.0167 13.6613 81.0167 14.2693C81.0167 14.888 80.398 15.2933 79.4913 15.2933C78.5847 15.2933 77.966 14.888 77.966 14.2693C77.966 13.6613 78.5847 13.256 79.4913 13.256ZM79.4913 15.944C80.8887 15.944 81.8487 15.2933 81.8487 14.2693C81.8487 13.2667 80.8887 12.6053 79.4913 12.6053C78.094 12.6053 77.134 13.2667 77.134 14.2693C77.134 15.2933 78.094 15.944 79.4913 15.944ZM79.15 19.1653H80.0247V17.2773C80.8887 17.224 81.774 17.128 82.6167 17L82.542 16.3707C80.5153 16.6267 78.1473 16.648 76.3767 16.648L76.494 17.3733C77.2833 17.3733 78.2007 17.3627 79.15 17.32V19.1653ZM78.6167 20.8613V18.792H77.742V21.576H84.5047V20.8613H78.6167Z" fill="#222222"/>
<path d="M102.981 53H103.952V48.7973C104.539 48.2107 104.944 47.912 105.541 47.912C106.309 47.912 106.64 48.3707 106.64 49.4587V53H107.611V49.3307C107.611 47.848 107.056 47.0587 105.84 47.0587C105.051 47.0587 104.453 47.496 103.92 48.0293L103.952 46.8347V44.5093H102.981V53ZM111.285 53.1387C111.637 53.1387 112.021 53.032 112.351 52.9253L112.159 52.2C111.967 52.2747 111.701 52.3493 111.498 52.3493C110.826 52.3493 110.602 51.944 110.602 51.2293V47.9973H112.17V47.208H110.602V45.576H109.791L109.674 47.208L108.767 47.2613V47.9973H109.631V51.208C109.631 52.36 110.047 53.1387 111.285 53.1387ZM115.066 53.1387C115.418 53.1387 115.802 53.032 116.132 52.9253L115.94 52.2C115.748 52.2747 115.482 52.3493 115.279 52.3493C114.607 52.3493 114.383 51.944 114.383 51.2293V47.9973H115.951V47.208H114.383V45.576H113.572L113.455 47.208L112.548 47.2613V47.9973H113.412V51.208C113.412 52.36 113.828 53.1387 115.066 53.1387ZM117.263 55.4427H118.233V53.48L118.212 52.4667C118.735 52.8933 119.289 53.1387 119.812 53.1387C121.145 53.1387 122.329 51.9973 122.329 50.0133C122.329 48.232 121.519 47.0587 120.025 47.0587C119.353 47.0587 118.703 47.4427 118.18 47.8693H118.148L118.063 47.208H117.263V55.4427ZM119.652 52.328C119.268 52.328 118.756 52.168 118.233 51.72V48.68C118.799 48.1573 119.3 47.88 119.791 47.88C120.889 47.88 121.316 48.744 121.316 50.024C121.316 51.464 120.612 52.328 119.652 52.328ZM125.392 53.1387C126.757 53.1387 127.504 52.36 127.504 51.4213C127.504 50.3227 126.576 49.9813 125.733 49.6613C125.083 49.416 124.485 49.2133 124.485 48.6587C124.485 48.2107 124.827 47.8267 125.563 47.8267C126.075 47.8267 126.48 48.04 126.875 48.3387L127.344 47.7093C126.896 47.3573 126.267 47.0587 125.552 47.0587C124.293 47.0587 123.547 47.784 123.547 48.7013C123.547 49.6827 124.432 50.0773 125.243 50.376C125.883 50.6213 126.565 50.8773 126.565 51.4747C126.565 51.976 126.192 52.3813 125.424 52.3813C124.731 52.3813 124.208 52.104 123.707 51.6987L123.227 52.3387C123.781 52.7973 124.571 53.1387 125.392 53.1387ZM129.368 48.84C129.752 48.84 130.072 48.5307 130.072 48.104C130.072 47.656 129.752 47.3467 129.368 47.3467C128.984 47.3467 128.664 47.656 128.664 48.104C128.664 48.5307 128.984 48.84 129.368 48.84ZM129.368 53.1387C129.752 53.1387 130.072 52.84 130.072 52.4027C130.072 51.9547 129.752 51.6453 129.368 51.6453C128.984 51.6453 128.664 51.9547 128.664 52.4027C128.664 52.84 128.984 53.1387 129.368 53.1387ZM130.972 54.9093H131.686L134.876 44.5307H134.172L130.972 54.9093ZM135.149 54.9093H135.863L139.053 44.5307H138.349L135.149 54.9093ZM149.555 52.872L144.542 44.1893L139.528 52.872H149.555ZM140.211 52.4773L144.542 44.9787L148.872 52.4773H140.211ZM160.222 52.872L155.208 44.1893L150.195 52.872H160.222ZM150.878 52.4773L155.208 44.9787L159.539 52.4773H150.878ZM170.888 52.872L165.875 44.1893L160.862 52.872H170.888ZM161.544 52.4773L165.875 44.9787L170.206 52.4773H161.544ZM181.156 46.4933V47.7413H178.948V46.4933H181.156ZM178.084 48.6053H175.503V47.0373H178.084V48.6053ZM178.948 48.456H181.156V50.024H182.042V44.232H181.156V45.7893H178.948V44.8187H178.084V46.344H175.503V44.8187H174.639V49.3093H178.948V48.456ZM178.874 53.096C177.444 53.096 176.57 52.6907 176.57 51.9973C176.57 51.304 177.444 50.888 178.874 50.888C180.324 50.888 181.199 51.304 181.199 51.9973C181.199 52.6907 180.324 53.096 178.874 53.096ZM178.874 50.216C176.911 50.216 175.695 50.8667 175.695 51.9973C175.695 53.128 176.911 53.7787 178.874 53.7787C180.847 53.7787 182.074 53.128 182.074 51.9973C182.074 50.8667 180.847 50.216 178.874 50.216ZM188.985 49.8747V50.5253H190.926V51.5067H191.801V44.2213H190.926V49.8747H188.985ZM187.033 45.256C187.94 45.256 188.558 45.6613 188.558 46.2693C188.558 46.888 187.94 47.2933 187.033 47.2933C186.126 47.2933 185.508 46.888 185.508 46.2693C185.508 45.6613 186.126 45.256 187.033 45.256ZM187.033 47.944C188.43 47.944 189.39 47.2933 189.39 46.2693C189.39 45.2667 188.43 44.6053 187.033 44.6053C185.636 44.6053 184.676 45.2667 184.676 46.2693C184.676 47.2933 185.636 47.944 187.033 47.944ZM186.692 51.1653H187.566V49.2773C188.43 49.224 189.316 49.128 190.158 49L190.084 48.3707C188.057 48.6267 185.689 48.648 183.918 48.648L184.036 49.3733C184.825 49.3733 185.742 49.3627 186.692 49.32V51.1653ZM186.158 52.8613V50.792H185.284V53.576H192.046V52.8613H186.158ZM204.923 45.0107H201.542V44.0933H200.667V45.0107H197.222V45.6933H204.923V45.0107ZM198.694 51.6027H203.515V53H198.694V51.6027ZM197.84 53.6613H204.368V50.9413H197.84V53.6613ZM198.928 47.4213C198.928 46.952 199.707 46.6853 201.104 46.6853C202.48 46.6853 203.259 46.952 203.259 47.4213C203.259 47.9013 202.48 48.168 201.104 48.168C199.707 48.168 198.928 47.9013 198.928 47.4213ZM201.542 49.5013V48.776C203.227 48.712 204.187 48.2427 204.187 47.4213C204.187 46.536 203.067 46.0667 201.104 46.0667C199.12 46.0667 198.011 46.536 198.011 47.4213C198.011 48.2427 198.96 48.712 200.667 48.776V49.5013H196.774V50.1947H205.414V49.5013H201.542ZM208.261 46.1413H209.456V50.632C209.05 50.6533 208.656 50.664 208.261 50.6747V46.1413ZM210.256 46.1413H211.045V45.4373H206.672V46.1413H207.461V50.696C207.098 50.7067 206.778 50.7067 206.49 50.7067L206.576 51.432C207.824 51.432 209.829 51.3893 211.312 51.112L211.258 50.472C210.949 50.5147 210.597 50.5467 210.256 50.5787V46.1413ZM212.069 47.8693H210.757V48.6373H212.069V53.288H212.89V44.456H212.069V47.8693ZM213.914 44.232V53.7893H214.757V44.232H213.914ZM223.353 44.2213V53.8107H224.228V44.2213H223.353ZM219.183 44.9573C217.764 44.9573 216.751 46.2587 216.751 48.296C216.751 50.3333 217.764 51.6347 219.183 51.6347C220.601 51.6347 221.615 50.3333 221.615 48.296C221.615 46.2587 220.601 44.9573 219.183 44.9573ZM219.183 45.7467C220.111 45.7467 220.772 46.7493 220.772 48.296C220.772 49.8533 220.111 50.856 219.183 50.856C218.244 50.856 217.583 49.8533 217.583 48.296C217.583 46.7493 218.244 45.7467 219.183 45.7467ZM229.625 45.928H231.875V45.2027H226.531V45.928H228.75V47.144C228.75 48.7973 227.587 50.6 226.211 51.2507L226.723 51.9547C227.811 51.4 228.75 50.1947 229.187 48.7973C229.646 50.1093 230.585 51.208 231.694 51.72L232.185 51.016C230.777 50.4187 229.625 48.7653 229.625 47.144V45.928ZM233.166 44.232V53.7893H234.041V44.232H233.166ZM239.867 48.872C241.349 48.616 242.757 47.816 243.344 46.6853C243.92 47.816 245.339 48.616 246.821 48.872L247.163 48.1787C245.477 47.9333 243.824 46.8347 243.824 45.576V45.5227H246.821V44.8187H239.835V45.5227H242.853V45.576C242.853 46.8347 241.2 47.9333 239.536 48.1787L239.867 48.872ZM247.664 49.672H239.024V50.3867H242.885V53.7893H243.76V50.3867H247.675L247.664 49.672ZM257.082 48.8933C255.407 48.5947 253.583 47.1867 253.583 45.5973V44.8613H252.666V45.5973C252.666 47.1867 250.852 48.5947 249.178 48.8933L249.54 49.6187C251.012 49.3093 252.506 48.3173 253.124 46.952C253.743 48.3173 255.247 49.3093 256.708 49.6187L257.082 48.8933ZM253.562 51.8267V49.5013H252.687V51.8267H248.826V52.5413H257.508V51.8267H253.562ZM258.19 54.9093H258.905L262.094 44.5307H261.39L258.19 54.9093Z" fill="#222222"/>
<path fill-rule="evenodd" clip-rule="evenodd" d="M14.4695 16.6667C14.4695 19.537 16.7964 21.8638 19.6667 21.8638C22.537 21.8638 24.8638 19.537 24.8638 16.6667C24.8638 13.7964 22.537 11.4695 19.6667 11.4695C16.7964 11.4695 14.4695 13.7964 14.4695 16.6667ZM19.6667 10C15.9848 10 13 12.9848 13 16.6667C13 20.3486 15.9848 23.3333 19.6667 23.3333C23.3486 23.3333 26.3333 20.3486 26.3333 16.6667C26.3333 12.9848 23.3486 10 19.6667 10Z" fill="#00AB91"/>
<path fill-rule="evenodd" clip-rule="evenodd" d="M20.6667 15.6666V12.6666L18.6667 12.6666L18.6667 15.6666H15.6667V17.6666H18.6667L18.6667 20.6666H20.6667V17.6666H23.6667V15.6666H20.6667Z" fill="#00AB91"/>
<path fill-rule="evenodd" clip-rule="evenodd" d="M120.646 13.6464C120.842 13.4512 121.158 13.4512 121.354 13.6464L127.741 20.0335C127.936 20.2288 127.936 20.5454 127.741 20.7406C127.545 20.9359 127.229 20.9359 127.034 20.7406L120.646 14.3536C120.451 14.1583 120.451 13.8417 120.646 13.6464Z" fill="#222222"/>
<path fill-rule="evenodd" clip-rule="evenodd" d="M120.646 20.7407C120.451 20.5454 120.451 20.2288 120.646 20.0336L127.034 13.6465C127.229 13.4512 127.545 13.4512 127.741 13.6465C127.936 13.8417 127.936 14.1583 127.741 14.3536L121.354 20.7407C121.158 20.9359 120.842 20.9359 120.646 20.7407Z" fill="#222222"/>
<path fill-rule="evenodd" clip-rule="evenodd" d="M156.194 12.1772C156.47 12.1772 156.694 12.4011 156.694 12.6772L156.694 21.71C156.694 21.9861 156.47 22.21 156.194 22.21C155.917 22.21 155.694 21.9861 155.694 21.71L155.694 12.6772C155.694 12.4011 155.917 12.1772 156.194 12.1772Z" fill="#222222"/>
<path fill-rule="evenodd" clip-rule="evenodd" d="M151.177 17.1935C151.177 16.9173 151.401 16.6935 151.677 16.6935L160.71 16.6935C160.986 16.6935 161.21 16.9173 161.21 17.1935C161.21 17.4696 160.986 17.6935 160.71 17.6935L151.677 17.6935C151.401 17.6935 151.177 17.4696 151.177 17.1935Z" fill="#222222"/>
<path fill-rule="evenodd" clip-rule="evenodd" d="M20.9398 42.8523C20.6741 42.5973 20.2521 42.606 19.9971 42.8717L15.5191 47.5384C15.2716 47.7963 15.2716 48.2036 15.5191 48.4615L19.9971 53.1282C20.2521 53.3939 20.6741 53.4026 20.9398 53.1477C21.2054 52.8927 21.2141 52.4707 20.9592 52.205L16.9241 48L20.9592 43.7949C21.2141 43.5292 21.2054 43.1072 20.9398 42.8523Z" fill="#5F6368"/>
<path fill-rule="evenodd" clip-rule="evenodd" d="M16.178 48.0212C16.178 48.3894 16.4765 48.6879 16.8447 48.6879H27.3334C27.7016 48.6879 28.0001 48.3894 28.0001 48.0212C28.0001 47.653 27.7016 47.3545 27.3334 47.3545H16.8447C16.4765 47.3545 16.178 47.653 16.178 48.0212Z" fill="#5F6368"/>
<path fill-rule="evenodd" clip-rule="evenodd" d="M47.0602 42.8523C47.3259 42.5973 47.7479 42.606 48.0029 42.8717L52.4809 47.5384C52.7284 47.7963 52.7284 48.2036 52.4809 48.4615L48.0029 53.1282C47.7479 53.3939 47.3259 53.4026 47.0602 53.1477C46.7946 52.8927 46.7859 52.4707 47.0408 52.205L51.0759 48L47.0408 43.7949C46.7859 43.5292 46.7946 43.1072 47.0602 42.8523Z" fill="#BABCBE"/>
<path fill-rule="evenodd" clip-rule="evenodd" d="M51.822 48.0212C51.822 48.3894 51.5235 48.6879 51.1553 48.6879H40.6666C40.2984 48.6879 39.9999 48.3894 39.9999 48.0212C39.9999 47.653 40.2984 47.3545 40.6666 47.3545H51.1553C51.5235 47.3545 51.822 47.653 51.822 48.0212Z" fill="#BABCBE"/>
<path d="M70 53.3333C68.5222 53.3333 67.2639 52.8138 66.225 51.775C65.1861 50.7361 64.6667 49.4777 64.6667 48C64.6667 46.5222 65.1861 45.2638 66.225 44.225C67.2639 43.1861 68.5222 42.6666 70 42.6666C70.9445 42.6666 71.7722 42.8583 72.4834 43.2416C73.1945 43.625 73.8111 44.15 74.3334 44.8166V43.1666C74.3334 42.8905 74.5572 42.6666 74.8334 42.6666C75.1095 42.6666 75.3334 42.8905 75.3334 43.1666V45.9C75.3334 46.4522 74.8856 46.9 74.3334 46.9H71.6C71.3239 46.9 71.1 46.6761 71.1 46.4C71.1 46.1238 71.3239 45.9 71.6 45.9H73.9C73.4778 45.2333 72.9389 44.6944 72.2834 44.2833C71.6278 43.8722 70.8667 43.6666 70 43.6666C68.7889 43.6666 67.7639 44.0861 66.925 44.925C66.0861 45.7638 65.6667 46.7888 65.6667 48C65.6667 49.2111 66.0861 50.2361 66.925 51.075C67.7639 51.9138 68.7889 52.3333 70 52.3333C70.9222 52.3333 71.7667 52.0694 72.5334 51.5416C73.1977 51.0843 73.6868 50.4998 74.0007 49.788C74.0885 49.5891 74.2792 49.45 74.4966 49.45C74.8336 49.45 75.0787 49.7721 74.9513 50.0841C74.5929 50.9618 74.0258 51.6893 73.25 52.2666C72.2945 52.9777 71.2111 53.3333 70 53.3333Z" fill="#5F6368"/>
</svg>
